<?xml version="1.0" encoding="utf-8"?>
<svg xmlns="http://www.w3.org/2000/svg" width="285.371" height="67.28" viewBox="0 0 285.371 67.28">
  <g id="Groupe_768" data-name="Groupe 768" transform="translate(-381.629 -295.616)">
    <path id="Tracé_6774" data-name="Tracé 6774" d="M88.987,164.895l38.861-67.28h246.51L335.5,164.895Z" transform="translate(292.643 198.001)" fill="#fff"/>
    <g id="Groupe_761" data-name="Groupe 761" transform="translate(166.293 -145.155)">
      <path id="Tracé_6584" data-name="Tracé 6584" d="M287.88,498.862H266.271c-.457,0-.457,0-.457-.449q0-4.112,0-8.224c0-.424-.047-.373.381-.373q21.049,0,42.1-.009a12.008,12.008,0,0,0,3.421-.422,2.894,2.894,0,0,0,2.132-3.025c0-1.37.005-2.741-.015-4.111-.1-2.64-1.293-3.722-3.867-3.954-14.471-.188-28.96-.006-43.437-.068-.457,0-.463.083-.462-.464q0-3.7,0-7.4c-.011-.508.039-.416.434-.416h41.985c1.967-.031,4.175-.336,4.525-2.645a31.426,31.426,0,0,0,.144-4.693,3.033,3.033,0,0,0-1.562-2.975c-1.85-.729-3.9-.585-5.853-.61H266.521c-.455,0-.455,0-.455-.451q0-4.112,0-8.223c0-.41-.062-.372.383-.372,14.738.083,29.487-.167,44.22.095,3.046.229,6.222.673,8.844,2.353,3.291,2.047,4.029,6.154,3.894,9.756-.05,3.376.514,7.491-2.345,9.939a7.265,7.265,0,0,1-2.757,1.571c-.042.013-.107.061-.105.09a14.357,14.357,0,0,1,2.271.956c4.5,2.711,3.5,9.453,3.581,13.967-.113,8.388-6.89,9.862-13.895,10.111C302.733,498.932,295.306,498.829,287.88,498.862Z" fill="#ff5d06"/>
      <path id="Tracé_6585" data-name="Tracé 6585" d="M456.875,498.889q-9.421,0-18.842,0c-.479,0-.421.077-.422-.4q0-4.224,0-8.447c0-.417,0-.417.411-.417q18.562,0,37.124,0a9.882,9.882,0,0,0,2.754-.365,3.17,3.17,0,0,0,2.339-3.439c0-1.158.022-2.318-.013-3.475a3.66,3.66,0,0,0-.866-2.4,5.157,5.157,0,0,0-3.535-1.3c-9.148-.162-18.315.214-27.456-.163-6.227-.512-10.12-3.045-10.554-9.645a48.3,48.3,0,0,1,.076-8.513c.9-8.211,6.081-10.288,13.627-10.313,4.434.035,8.925-.073,13.332.037,0,2.882-.006,5.879,0,8.8,0,.487.052.423-.411.423q-5.907,0-11.814,0c-1.744-.018-4.061.323-4.609,2.271a12.572,12.572,0,0,0-.359,3.986,8.493,8.493,0,0,0,.251,2.022c.481,1.928,2.526,2.371,4.257,2.357q11.552,0,23.1,0a36.9,36.9,0,0,1,5.331.369c3.345.472,6.823,1.946,8.344,5.16,1.4,2.882,1.288,6.172,1.309,9.3q.018,1.7-.088,3.394c-.391,8.471-6.3,10.592-13.815,10.728C469.858,498.952,463.366,498.859,456.875,498.889Z" transform="translate(-107.553 -0.026)" fill="#009ec0"/>
      <path id="Tracé_6586" data-name="Tracé 6586" d="M649.97,556.048v-4.635c.025-.223-.1-.485.249-.429a3.063,3.063,0,0,1,.889.031c.26.086.4.4.585.611,2.055,2.338,4.1,4.687,6.151,7.026.214.261.145-.191.155-.317v-6.877c.016-.193-.083-.507.22-.476.324.009.648.012.972,0,.172-.007.219.065.2.218q-.005,4.783,0,9.568c0,.454.063.377-.4.386-.3-.018-.63.092-.883-.043-2.228-2.418-4.339-5-6.534-7.469-.047-.054-.093-.151-.171-.114s-.039.135-.039.207q0,3.513,0,7.026c-.02.139.071.4-.142.392-.374,0-.748,0-1.122,0-.211.005-.105-.264-.131-.4Z" transform="translate(-240.5 -63.242)"/>
      <path id="Tracé_6587" data-name="Tracé 6587" d="M660.078,456.391c.125,6.365-9.835,7.209-10.837.8a5.152,5.152,0,0,1,4.371-5.946C656.882,450.633,660.225,452.9,660.078,456.391Zm-5.359,3.843a3.842,3.842,0,0,0,3.761-4.764c-1.1-4.543-8.138-3.576-7.764,1.2A3.782,3.782,0,0,0,654.719,460.234Z" transform="translate(-239.994 -0.75)"/>
      <path id="Tracé_6588" data-name="Tracé 6588" d="M707.446,561.11a5.232,5.232,0,0,1-4.531-8.094c2.536-3.909,9.468-2.775,10.03,2.074A5.226,5.226,0,0,1,707.446,561.11Zm4.03-5.234a3.915,3.915,0,1,0-6.588,2.921C707.33,560.916,711.571,559.321,711.477,555.877Z" transform="translate(-273.11 -63.051)"/>
      <path id="Tracé_6589" data-name="Tracé 6589" d="M650.45,506.336q0-2.392,0-4.784c0-.29.005-.294.286-.3,1.792.068,4.083-.416,5.234,1.342a2.758,2.758,0,0,1-.939,3.851c-.173.082-.332.16-.107.315,1.431,1.212,2.092,3.042,3.272,4.468.035.045.1.09.067.161s-.106.048-.164.048c-.436,0-.872-.011-1.308.006a.359.359,0,0,1-.356-.207,23.21,23.21,0,0,0-2.627-3.7,2.168,2.168,0,0,0-1.769-.5c-.177.021-.088.263-.11.386q0,1.869,0,3.737c0,.28,0,.282-.287.284-.312,0-.623,0-.934,0-.249,0-.254-.007-.257-.249C650.447,509.576,650.452,507.956,650.45,506.336Zm1.48-2.229q0,.709,0,1.418c0,.092,0,.18.129.178,1.284.08,2.832-.07,2.789-1.622.042-1.539-1.587-1.611-2.759-1.552-.131,0-.161.079-.16.2C651.932,503.187,651.93,503.647,651.93,504.107Z" transform="translate(-240.803 -32.115)"/>
      <path id="Tracé_6590" data-name="Tracé 6590" d="M738.127,556.055c0-1.632,0-3.264,0-4.9-.008-.131.054-.172.179-.168,1.807.085,4.146-.441,5.319,1.33a2.748,2.748,0,0,1-.911,3.858c-.312.181-.312.181-.021.417,1.362,1.22,2.035,2.994,3.181,4.4.06.085.093.164-.063.165-.486,0-.972,0-1.458,0-.178,0-.223-.136-.294-.246a26.006,26.006,0,0,0-2.476-3.538,2.108,2.108,0,0,0-1.845-.592.124.124,0,0,0-.13.143c0,1.271,0,2.541,0,3.812-.024.149.082.429-.153.419q-.6,0-1.2,0c-.211,0-.107-.264-.131-.4Zm1.48-2.231c0,.472,0,.945,0,1.417,0,.154.041.22.21.22a10.125,10.125,0,0,0,1.263-.063,1.493,1.493,0,0,0,1.428-1.628c.026-1.491-1.65-1.561-2.767-1.5-.153,0-.132.119-.132.214C739.606,552.928,739.607,553.376,739.607,553.823Z" transform="translate(-295.691 -63.251)"/>
      <path id="Tracé_6591" data-name="Tracé 6591" d="M678.456,508.381c-.647,0-1.295,0-1.943,0a.274.274,0,0,0-.3.2c-.353.847-.725,1.685-1.077,2.533a.345.345,0,0,1-.382.263c-.323-.017-.647,0-.971-.005-.265,0-.274-.018-.164-.278,1.346-3.172,2.706-6.338,4.057-9.508.187-.438.186-.4.664-.45.46-.046.656.127.838.545,1.361,3.121,2.755,6.229,4.138,9.341.155.349.151.35-.219.351-.3,0-.6-.013-.9,0a.32.32,0,0,1-.355-.243c-.364-.841-.771-1.665-1.127-2.51a.358.358,0,0,0-.4-.248C679.7,508.39,679.079,508.381,678.456,508.381Zm-.013-1.33c.461,0,.921,0,1.382,0,.155,0,.155-.05.1-.172-.491-1.1-.978-2.2-1.468-3.292-.077-.134-.095-.115-.168.013-.171.412-.338.825-.508,1.237-.273.664-.55,1.327-.821,1.993-.078.193-.062.216.137.218C677.547,507.053,677.995,507.05,678.443,507.05Z" transform="translate(-255.267 -32.04)"/>
      <path id="Tracé_6592" data-name="Tracé 6592" d="M628.053,556.092q0-2.391,0-4.782c.006-.3.006-.3.319-.3h5.195c.112.009.3-.046.292.125,0,.361,0,.722,0,1.083,0,.208-.266.1-.4.128q-1.831,0-3.663,0c-.262,0-.266,0-.266.261q0,1.271,0,2.541c0,.243.007.249.252.25,1.271,0,2.541,0,3.812,0,.077,0,.109.042.11.114q0,.542,0,1.084a.115.115,0,0,1-.137.131c-1.246,0-2.492,0-3.737,0-.337,0-.3.02-.3.311,0,.847,0,1.694,0,2.541,0,.262,0,.267.267.267q2,0,4,0c.138-.005.2.049.2.2q-.01.467,0,.934c.035.3-.3.175-.484.2H628.47c-.148-.019-.432.078-.418-.154C628.055,559.381,628.052,557.736,628.053,556.092Z" transform="translate(-226.781 -63.269)"/>
      <path id="Tracé_6593" data-name="Tracé 6593" d="M627.852,506.33v-4.672q0-.131,0-.262c-.009-.2.21-.157.347-.16,1.555.091,3.224-.291,4.678.4a2.9,2.9,0,0,1,1.262,3.513,3.138,3.138,0,0,1-3.249,1.878c-.448-.006-.9,0-1.346,0-.157,0-.222.043-.216.21.013,1.295,0,2.591,0,3.887,0,.346-.022.3-.31.3-.324,0-.648,0-.972,0-.143,0-.208-.055-.2-.2C627.854,509.594,627.851,507.962,627.852,506.33Zm1.48-2.243c0,.461,0,.922,0,1.383,0,.216.006.221.229.222.523,0,1.047,0,1.571,0a1.543,1.543,0,0,0,1.628-1.754,1.386,1.386,0,0,0-1.208-1.317,14.748,14.748,0,0,0-2.089-.058c-.126,0-.133.081-.133.175C629.333,503.19,629.332,503.639,629.332,504.087Z" transform="translate(-226.655 -32.093)"/>
      <path id="Tracé_6594" data-name="Tracé 6594" d="M627.851,456.657v-4.669c0-.087,0-.174,0-.261-.008-.168.173-.132.286-.135,1.071,0,2.142,0,3.213,0a3.286,3.286,0,0,1,1.539.386,2.868,2.868,0,0,1,1.319,3.268c-.491,2.134-2.852,2.187-4.632,2.114-.2,0-.249-.038-.247.246.009,1.32,0,2.64,0,3.959,0,.135-.032.2-.188.2-.373-.01-.747-.006-1.121,0-.127,0-.182-.044-.173-.174C627.855,459.944,627.849,458.3,627.851,456.657Zm1.48-2.2c0,.448,0,.9,0,1.343,0,.217.006.222.231.224,1.372.016,3.306.239,3.193-1.745-.117-1.687-2.053-1.351-3.243-1.377-.151,0-.186.077-.184.211C629.334,453.561,629.331,454.008,629.331,454.456Z" transform="translate(-226.654 -1.028)"/>
      <path id="Tracé_6595" data-name="Tracé 6595" d="M606.516,559.206a6.758,6.758,0,0,1,.021-.845c.334.239.575.615.941.835a2.429,2.429,0,0,0,3.084.042,1.233,1.233,0,0,0-.005-1.61c-.933-1.12-2.451-1.515-3.435-2.592a2.571,2.571,0,0,1,1.132-4.172,3.977,3.977,0,0,1,3.4.4.3.3,0,0,1,.175.295c-.01.423,0,.847,0,1.27,0,.055.028.133-.042.157-.029.01-.084-.042-.121-.072a3.1,3.1,0,0,0-2.953-.793,1.13,1.13,0,0,0-.484,1.951c.876.866,2.113,1.207,3.014,2.045a2.82,2.82,0,0,1-1.776,4.99,4.511,4.511,0,0,1-2.743-.792C606.354,560.07,606.577,559.572,606.516,559.206Z" transform="translate(-213.263 -63.045)"/>
      <path id="Tracé_6596" data-name="Tracé 6596" d="M681.71,559.218c.007-1.136-.121-1.013.655-.269a3,3,0,0,0,2.547.769,1.3,1.3,0,0,0,.684-2.277,14.8,14.8,0,0,0-2.414-1.672,4.282,4.282,0,0,1-1.043-.951,2.569,2.569,0,0,1,1.115-3.883,3.932,3.932,0,0,1,3.607.329.273.273,0,0,1,.161.264c-.027.474.037.99-.027,1.449-.049.017-.087-.027-.124-.058a3.091,3.091,0,0,0-3.02-.793,1.132,1.132,0,0,0-.8,1.167c.068.716.756,1.131,1.312,1.473,1,.616,2.18,1.105,2.751,2.207a2.76,2.76,0,0,1-1.99,4.082,4.3,4.3,0,0,1-3.284-.8.3.3,0,0,1-.128-.286C681.714,559.716,681.71,559.467,681.71,559.218Z" transform="translate(-260.339 -63.04)"/>
      <path id="Tracé_6597" data-name="Tracé 6597" d="M606.518,509.467c.006-.274-.015-.589.01-.854.052-.007.087.031.123.068a3.287,3.287,0,0,0,2.855,1.326,1.308,1.308,0,0,0,1.036-2.143,11.039,11.039,0,0,0-2.472-1.777,4.7,4.7,0,0,1-1.087-.958,2.565,2.565,0,0,1,1.09-3.937,3.984,3.984,0,0,1,3.551.305.351.351,0,0,1,.208.355c-.016.423,0,.847-.006,1.271,0,.036,0,.09-.02.105-.048.035-.087-.013-.122-.042a3.148,3.148,0,0,0-2.919-.829,1.146,1.146,0,0,0-.5,2.015,5.27,5.27,0,0,0,1.225.843c1.1.609,2.325,1.3,2.657,2.61a2.748,2.748,0,0,1-2.633,3.53,4.716,4.716,0,0,1-2.756-.762C606.349,510.362,606.577,509.848,606.518,509.467Z" transform="translate(-213.264 -31.904)"/>
      <path id="Tracé_6598" data-name="Tracé 6598" d="M606.52,459.734a6.9,6.9,0,0,1,.021-.881.363.363,0,0,1,.093.056,3.247,3.247,0,0,0,3.023,1.325,1.292,1.292,0,0,0,.816-2.21,12.647,12.647,0,0,0-2.4-1.69,4.776,4.776,0,0,1-1.064-.928,2.569,2.569,0,0,1,1.1-3.981,3.955,3.955,0,0,1,3.513.325.348.348,0,0,1,.209.35c-.014.423,0,.847-.006,1.27,0,.042.019.107-.048.115a.149.149,0,0,1-.094-.047,3.132,3.132,0,0,0-2.952-.829,1.156,1.156,0,0,0-.472,2.011,4.6,4.6,0,0,0,1.031.732c1.082.625,2.36,1.23,2.79,2.5a2.738,2.738,0,0,1-1.934,3.664,4.3,4.3,0,0,1-3.5-.751.3.3,0,0,1-.134-.284C606.524,460.233,606.52,459.984,606.52,459.734Z" transform="translate(-213.266 -0.757)"/>
      <path id="Tracé_6599" data-name="Tracé 6599" d="M521.442,454.742q0-2.167,0-4.333c-.018-.121.059-.2.166-.092,1.687,1.33,3.362,2.675,5.042,4.014a2.638,2.638,0,0,0,.257.215c.267.162.254.2-.015.412-1.789,1.4-3.534,2.861-5.336,4.242a.066.066,0,0,1-.108-.051C521.431,457.681,521.448,456.21,521.442,454.742Z" transform="translate(-160.036 -0.197)" fill="#009ec0"/>
      <path id="Tracé_6600" data-name="Tracé 6600" d="M561.205,454.734c0-1.444,0-2.888,0-4.332,0-.046-.015-.109.055-.117,1.748,1.276,3.417,2.717,5.138,4.048l.349.279c.159.128.163.151.008.279-.26.212-.523.419-.785.628l-4.34,3.458c-.115.092-.265.268-.356.226-.153-.071-.065-.285-.066-.435C561.2,457.422,561.2,456.078,561.205,454.734Z" transform="translate(-184.918 -0.211)" fill="#009ec0"/>
      <path id="Tracé_6601" data-name="Tracé 6601" d="M541.361,454.772c0-1.406,0-2.813,0-4.218.01-.081-.046-.2.037-.232.049-.019.147.07.214.122q2.005,1.605,4.016,3.2c.408.325.818.645,1.224.971.172.138.175.164,0,.306-.549.446-1.1.887-1.655,1.328q-1.805,1.438-3.611,2.875c-.057.044-.141.11-.19.094-.074-.024-.036-.128-.037-.2Q541.359,456.9,541.361,454.772Z" transform="translate(-172.503 -0.233)" fill="#009ec0"/>
      <path id="Tracé_6602" data-name="Tracé 6602" d="M685.209,457.317q0,2.017,0,4.033c0,.481.05.4-.424.406-.3,0-.6,0-.9,0-.26.024-.154-.271-.176-.433q0-4.014,0-8.029c0-.433.042-.375-.377-.377-.947,0-1.893,0-2.839,0-.311,0-.3.02-.3-.309,0-.274.006-.548,0-.822,0-.138.033-.214.185-.2,2.651,0,5.3,0,7.956,0,.448,0,.379-.062.385.4,0,.212,0,.423,0,.635,0,.286,0,.289-.28.291-1,0-1.992,0-2.989,0-.239,0-.245.007-.245.252Q685.208,455.244,685.209,457.317Z" transform="translate(-259.426 -1.025)"/>
      <path id="Tracé_6603" data-name="Tracé 6603" d="M701.464,508.721c0-.785-.005-1.57,0-2.355a.8.8,0,0,0-.184-.544q-1.7-2.133-3.38-4.278c-.066-.073-.23-.255-.045-.274q.766,0,1.533,0c.116,0,.169.1.229.174.816,1.052,1.638,2.1,2.451,3.154.092.123.162.125.257,0,.82-1.049,1.652-2.089,2.468-3.141a.418.418,0,0,1,.373-.2c.436.012.872,0,1.308,0,.059,0,.137-.026.172.033.049.083-.037.136-.078.189q-.873,1.118-1.753,2.232c-.562.714-1.118,1.433-1.688,2.14a.8.8,0,0,0-.188.543c.007,1.557,0,3.115,0,4.672,0,.437.03.375-.38.378-.274,0-.549,0-.823,0s-.275-.006-.276-.268C701.461,510.366,701.464,509.543,701.464,508.721Z" transform="translate(-270.43 -32.126)"/>
    </g>
  </g>
</svg>
