<?xml version="1.0" encoding="utf-8"?>
<svg xmlns="http://www.w3.org/2000/svg" width="121.124" height="92.318" viewBox="0 0 121.124 92.318">
  <g id="W67NPP" transform="translate(768.917 -1024.786) rotate(90)">
    <g id="Groupe_707" data-name="Groupe 707" transform="translate(1024.786 647.793)">
      <g id="Groupe_706" data-name="Groupe 706">
        <path id="Tracé_6635" data-name="Tracé 6635" d="M1063.944,696.718v-1.569q0-18.444,0-36.889c0-2.257.443-2.7,2.694-2.7,2.552,0,2.55,0,2.552-2.531,0-1.125-.03-2.252.012-3.376a1.71,1.71,0,0,1,1.754-1.858,1.683,1.683,0,0,1,1.7,1.893c.028,1.625.04,3.252-.005,4.877-.02.738.17,1.068.967,1.009a23.666,23.666,0,0,1,2.5,0,1.691,1.691,0,0,1,1.791,1.819c.016.332,0,.667,0,1q0,19.509,0,39.015v1.333c.973-2.717,1.862-5.425,3.035-8.033a43.713,43.713,0,0,1,23.182-22.875c1.579-.688,2.367-.394,3,1.274.368.973.7,1.163,1.651.595a16.482,16.482,0,0,1,6.086-2.145,1.729,1.729,0,0,1,2.2,1.306,1.7,1.7,0,0,1-1.526,2.04,19.007,19.007,0,0,0-5.7,2.139c-.623.369-.814.725-.453,1.395a17.791,17.791,0,0,1,.783,1.836c.6,1.482.316,2.241-1.144,2.892a32.454,32.454,0,0,0-18.738,22.074c-.174.613-.036.868.524,1.139a5.677,5.677,0,0,1,3.381,5.513q0,27.448-.005,54.895a5.774,5.774,0,0,1-6.105,6.127q-17.132.016-34.264,0a5.814,5.814,0,0,1-6.144-6.111q-.019-27.448,0-54.9a5.7,5.7,0,0,1,3.844-5.706c.8-.283.876-.572.66-1.321a32.815,32.815,0,0,0-17.791-21.262c-.373-.184-.762-.336-1.134-.52a1.8,1.8,0,0,1-1.063-2.638c.073-.195.16-.384.241-.575.906-2.161.906-2.162-1.123-3.255a16.009,16.009,0,0,0-4.446-1.6c-1.614-.327-2.229-1-2.041-2.134.2-1.177,1.059-1.59,2.766-1.257a17.16,17.16,0,0,1,6.23,2.468c.67.442,1.012.383,1.227-.394a5.934,5.934,0,0,1,.336-.806c.628-1.407,1.381-1.734,2.777-1.14a44.164,44.164,0,0,1,14.923,10.269,46.161,46.161,0,0,1,10.245,17.407c.106.316.2.634.316.947C1063.663,696.445,1063.735,696.491,1063.944,696.718Zm-12.8,43.811q0,10.944,0,21.886c0,2.239.77,3.021,2.99,3.021q16.822.007,33.643,0c2.158,0,2.935-.776,2.936-2.939q.007-21.949.026-43.9c0-1.066-.313-1.3-1.329-1.294q-18.51.052-37.019,0c-1.087,0-1.277.345-1.272,1.341C1051.165,725.938,1051.145,733.234,1051.145,740.53Zm19.8-26.66q9.317,0,18.634-.008c.48,0,1.154.256,1.141-.678-.026-1.918.028-3.837-.039-5.752a2.107,2.107,0,0,0-2.2-2.087q-5.627-.044-11.254-.041-11.688-.011-23.377-.013a2.375,2.375,0,0,0-2.7,2.558c-.025,1.626.054,3.255-.028,4.877-.049.959.27,1.173,1.189,1.166C1058.524,713.85,1064.735,713.869,1070.947,713.869Zm3.49-33.362c0-6.791-.014-13.581.019-20.371,0-.857-.208-1.173-1.1-1.132a44.552,44.552,0,0,1-4.494,0c-1.09-.06-1.482.2-1.471,1.409.065,7.04.032,14.08.032,21.12,0,6.374.015,12.748-.018,19.121,0,.854.208,1.179,1.1,1.14a43.846,43.846,0,0,1,4.5,0c1.109.065,1.478-.23,1.467-1.419C1074.4,693.755,1074.437,687.131,1074.437,680.507Zm9.33,21.267a6.225,6.225,0,0,1,1.124.011c1.357.252,1.822-.365,2.112-1.655a31.139,31.139,0,0,1,3.287-8.336,35.635,35.635,0,0,1,15.2-14.74c.881-.448,1.008-.863.557-1.689a20.1,20.1,0,0,1-.971-2.293c-.651-1.648-.646-1.653-2.209-.847-11.108,5.72-17.972,14.807-21.214,26.762C1080.894,701.772,1080.9,701.774,1083.767,701.774Zm-25.165,0c.583,0,1.171-.042,1.75.01.917.082,1.106-.182.88-1.12a48.243,48.243,0,0,0-3.959-10.883A40.018,40.018,0,0,0,1039,671.922c-.713-.356-1.084-.357-1.369.478a23.817,23.817,0,0,1-1.3,3.1c-.4.786-.205,1.114.55,1.506a35.718,35.718,0,0,1,18.407,22.27C1056.044,701.771,1056.033,701.774,1058.6,701.774Z" transform="translate(-1024.786 -647.793)" fill="#474747"/>
      </g>
    </g>
  </g>
</svg>
