<?xml version="1.0" encoding="utf-8"?>
<svg xmlns="http://www.w3.org/2000/svg" width="96.288" height="96.275" viewBox="0 0 96.288 96.275">
  <path id="Tracé_6732" data-name="Tracé 6732" d="M872.34,741.311c-.329-.019-.6-.033-.813-.033a1.089,1.089,0,0,0-.713.149c-.2.181-.219.651-.253,1.505l-.006.162c-.017.419.03.663.151.789s.373.185.831.185h.006c27.382-.024,55.224-.023,82.147-.023h11.734c1.415,0,1.415,0,1.415-1.383,0-.685,0-1.136-.161-1.284s-.518-.13-1.239-.067a5.862,5.862,0,0,1-4.68-1.638,37.371,37.371,0,0,0-10.583-6.9c-1.716-.7-2.3-1.628-2.079-3.3.1-.784.28-1.143,1.109-1.338a10.545,10.545,0,0,0,8.271-10.3c.035-4.063.024-8.194.015-12.19l-.007-3.2a1.723,1.723,0,0,0-.413-1.294,1.758,1.758,0,0,0-1.347-.365,10.7,10.7,0,0,0-6.638,2.618.964.964,0,0,0-.1.106.6.6,0,0,1-.734.246l-.114-.043v-.122c0-.508,0-1.015,0-1.524.007-1.251.014-2.545-.022-3.817-.022-.759.228-1.075.988-1.252a10.39,10.39,0,0,0,8.211-8.905,49.975,49.975,0,0,0,.193-7.621c-.028-1.1-.057-2.232-.053-3.348a1.181,1.181,0,0,0-.34-.871,1.661,1.661,0,0,0-1.206-.4,10.726,10.726,0,0,0-6.759,2.559,1.072,1.072,0,0,0-.122.127.685.685,0,0,1-.77.292l-.126-.038v-.132c0-.511,0-1.022.006-1.534.007-1.252.014-2.547-.024-3.817-.026-.838.316-1.077,1-1.245a10.571,10.571,0,0,0,7.935-7.418,14.194,14.194,0,0,0,.443-4.666c-.006-.36-.011-.719-.011-1.078a1.485,1.485,0,0,0-1.863-1.747,10.482,10.482,0,0,0-8.14,4.4c-.264.356-.443.6-.725.589-.254,0-.469-.223-.712-.556a10.4,10.4,0,0,0-8.31-4.43,1.67,1.67,0,0,0-1.274.35,1.7,1.7,0,0,0-.432,1.27c-.011.557-.009,1.112-.006,1.669l0,.666a10.693,10.693,0,0,0,8.621,11.019.813.813,0,0,1,.734.95c-.013.737-.011,1.474-.008,2.211l0,4.066-.3-.283a10.933,10.933,0,0,0-7.157-3.211,1.91,1.91,0,0,0-1.462.347,1.942,1.942,0,0,0-.43,1.465q-.009,4.285,0,8.57a10.684,10.684,0,0,0,8.53,10.8.905.905,0,0,1,.828,1.075c-.015.966-.014,1.932-.013,2.9,0,.689,0,1.378,0,2.067a.7.7,0,0,0,.011.11.513.513,0,0,1-.329.643l-.1.039-.08-.075a10.75,10.75,0,0,0-7.052-3.006,1.794,1.794,0,0,0-1.365.358,1.831,1.831,0,0,0-.421,1.369l-.006,3.472c-.007,3.874-.016,7.878.013,11.816a10.711,10.711,0,0,0,7.69,10.2c1.675.5,1.72.571,1.631,2.359a.383.383,0,0,1-.082.2.6.6,0,0,0-.037.058l-.066.117-.3-.071c-.129-.03-.26-.06-.389-.1a37.333,37.333,0,0,0-15.51-1.515,32.1,32.1,0,0,1-6.281,0c-.528-.036-1.057-.071-1.587-.1-.761-.041-1.039-.337-1.028-1.092.039-2.545.039-5.164,0-7.785a1.053,1.053,0,0,1,.975-1.258,10.612,10.612,0,0,0,8.362-10.03c.061-4.029.046-8.128.033-12.092q-.006-1.84-.011-3.682a1.625,1.625,0,0,0-.406-1.2,1.655,1.655,0,0,0-1.244-.374,10.725,10.725,0,0,0-6.667,2.547,1.172,1.172,0,0,0-.123.127.738.738,0,0,1-.766.313l-.139-.03v-.142c0-.509,0-1.019.006-1.527.006-1.252.013-2.547-.021-3.818a1.054,1.054,0,0,1,.981-1.255,10.322,10.322,0,0,0,8.229-8.995,52.567,52.567,0,0,0,.18-7.889c-.028-1.01-.057-2.054-.062-3.081a1.071,1.071,0,0,0-.321-.782,1.659,1.659,0,0,0-1.207-.4,10.727,10.727,0,0,0-6.761,2.552,1.1,1.1,0,0,0-.122.127.7.7,0,0,1-.768.3l-.132-.035,0-1.654c0-1.289.008-2.621-.014-3.929a.955.955,0,0,1,.889-1.126,10.626,10.626,0,0,0,7.72-6.533,14.409,14.409,0,0,0,.755-5.884c0-.253,0-.508-.006-.761a1.488,1.488,0,0,0-1.857-1.756,10.346,10.346,0,0,0-8.077,4.318c-.276.375-.518.624-.8.627h0c-.291,0-.5-.254-.812-.668a10.438,10.438,0,0,0-8.1-4.277,1.463,1.463,0,0,0-1.81,1.708c-.008.8-.015,1.855,0,2.917a10.828,10.828,0,0,0,6.943,9.892,3.834,3.834,0,0,0,.8.176c.613.091,1.246.185,1.507.788a3.851,3.851,0,0,1,.134,1.8c-.021.256-.041.521-.04.768,0,.811,0,1.622,0,2.5v1.638l-.3-.281a10.969,10.969,0,0,0-7.149-3.205,1.508,1.508,0,0,0-1.9,1.8q-.009,4.02,0,8.04v.335a10.686,10.686,0,0,0,8.62,11.02.816.816,0,0,1,.735.947c-.008.9-.008,1.8-.008,2.693,0,.79,0,1.581,0,2.371a.909.909,0,0,0,.01.113.546.546,0,0,1-.316.654l-.108.048-.086-.081a10.712,10.712,0,0,0-6.853-3.008,2.04,2.04,0,0,0-1.553.335,2.1,2.1,0,0,0-.437,1.57v2.191q0,6.257,0,12.515a10.673,10.673,0,0,0,8.529,10.8.907.907,0,0,1,.828,1.073c-.017,1.566-.014,3.131-.011,4.7l0,1.73c0,2.445-.095,2.544-2.52,2.666-.474.023-.956.095-1.421.163a8.707,8.707,0,0,1-2.671.111,38.671,38.671,0,0,0-11.009-.151,49.051,49.051,0,0,0-7.37,1.6l-.2.059-.022-.21c-.207-1.982-.161-2.055,1.617-2.58a10.649,10.649,0,0,0,7.638-9.945c.051-4.087.038-8.245.026-12.265l-.009-3.412a1.649,1.649,0,0,0-.406-1.228,1.746,1.746,0,0,0-1.317-.371,10.707,10.707,0,0,0-6.647,2.6,1,1,0,0,0-.1.108.726.726,0,0,1-.726.3l-.145-.027v-.147c0-.515,0-1.029.006-1.543.006-1.273.013-2.589-.022-3.881-.021-.8.319-1.028.954-1.177a10.723,10.723,0,0,0,8.408-10.5c.023-2.78.013-5.607,0-8.34l0-.617a1.785,1.785,0,0,0-.422-1.335,1.724,1.724,0,0,0-1.3-.363,10.734,10.734,0,0,0-6.575,2.533,1.356,1.356,0,0,0-.127.127.844.844,0,0,1-.762.346l-.158-.018v-.158c0-.519,0-1.037.006-1.555.007-1.274.014-2.591-.023-3.881-.022-.785.321-1.017.964-1.17a10.641,10.641,0,0,0,7.609-6.4,14.4,14.4,0,0,0,.8-6.085c0-.249-.006-.5-.008-.746a1.788,1.788,0,0,0-.429-1.338,1.717,1.717,0,0,0-1.3-.351,10.411,10.411,0,0,0-8.246,4.371c-.256.345-.473.608-.749.608-.255,0-.467-.219-.747-.6a10.4,10.4,0,0,0-8.335-4.383,1.7,1.7,0,0,0-1.248.375,1.254,1.254,0,0,0-.377.921l-.016.509a25.294,25.294,0,0,0,.074,3.841,10.7,10.7,0,0,0,8.4,9.324,1.152,1.152,0,0,0,.188.023c.234.018.668.05.67.6.006,1.461,0,2.923,0,4.448v2.053l-.755-.616c-.273-.224-.5-.411-.734-.589a10.527,10.527,0,0,0-6.212-2.187,1.627,1.627,0,0,0-1.224.369,1.649,1.649,0,0,0-.413,1.221c-.015,2.07-.016,4.328,0,7.108,0,.27,0,.54-.005.811a16.6,16.6,0,0,0,.1,2.469,10.644,10.644,0,0,0,8.4,9.218c.05.012.1.022.147.032.326.066.733.15.722.8-.024,1.365-.02,2.729-.016,4.174,0,.572,0,1.156,0,1.757v.375l-.7-.576c-.222-.184-.4-.329-.575-.472a10.575,10.575,0,0,0-6.346-2.354,1.725,1.725,0,0,0-1.307.361,1.781,1.781,0,0,0-.418,1.332l-.006,3.378c-.009,3.936-.017,8.006.014,12.008a10.8,10.8,0,0,0,7.1,9.967,3.715,3.715,0,0,0,.721.151c.551.078,1.175.167,1.424.734a3.535,3.535,0,0,1,.127,1.662c-.018.239-.037.487-.036.718v.072a.788.788,0,0,1-.571.926,43.346,43.346,0,0,0-12.383,7.848A5.2,5.2,0,0,1,872.34,741.311Zm75.812-29.953a7.95,7.95,0,0,1,5.571-7.462c.29-.088.59-.18.8-.023.156.117.222.331.219.716-.013,1.914-.011,3.829-.008,5.744,0,2.518.007,5.122-.028,7.685a7.679,7.679,0,0,1-6.367,7.429l-.2.025v-3.7q0-1.575,0-3.151C948.131,716.24,948.126,713.779,948.151,711.358Zm5.572-51.095c.3-.09.581-.176.788-.025.156.113.226.326.234.712A8.1,8.1,0,0,1,948.9,669.3a2.364,2.364,0,0,1-.343.06l-.145.019-.183.029-.021-.185C947.754,665,949.97,661.4,953.723,660.263Zm-5.372,24.688a7.53,7.53,0,0,1,5.365-5.983c.3-.107.593-.19.8-.039.165.118.232.337.225.731-.02,1.126-.016,2.271-.012,3.379,0,1.252.008,2.546-.021,3.819a7.736,7.736,0,0,1-6.388,7.425l-.208.026.01-.209c.052-1.132.02-2.288-.011-3.4A28.038,28.038,0,0,1,948.352,684.951Zm-3.117-15.7a.457.457,0,0,1-.309.1,1.523,1.523,0,0,1-.329-.047c-3.584-.831-6.461-5.139-5.809-8.7a.631.631,0,0,1,.274-.477.569.569,0,0,1,.515.071.816.816,0,0,0,.136.059,7.921,7.921,0,0,1,5.665,7.771l0,.212a4.439,4.439,0,0,0,0,.455A.637.637,0,0,1,945.234,669.251Zm.153,24.331a.751.751,0,0,1-.195.617.421.421,0,0,1-.265.082,1.8,1.8,0,0,1-.459-.091,7.733,7.733,0,0,1-5.589-6.709c-.143-1.95-.108-3.942-.074-5.869.015-.862.031-1.724.031-2.586v-.2l.2.026a7.714,7.714,0,0,1,6.311,7.237c.054,1.518.046,3.061.038,4.554C945.381,691.623,945.375,692.6,945.387,693.583ZM920.1,702.1a7.189,7.189,0,0,1,.212-1.776,7.911,7.911,0,0,1,5.355-5.778c.313-.108.59-.186.8-.039.163.117.232.335.229.729-.013,1.912-.011,3.825-.008,5.737,0,2.521.007,5.127-.028,7.691a7.772,7.772,0,0,1-6.366,7.428l-.2.025v-3.464Q920.089,707.379,920.1,702.1Zm-3.008-42.154a.425.425,0,0,1-.251.072,3.824,3.824,0,0,1-1.145-.37,8.125,8.125,0,0,1-4.967-8.283.7.7,0,0,1,.246-.547.6.6,0,0,1,.54.03,1.46,1.46,0,0,0,.15.052,7.99,7.99,0,0,1,5.663,7.678C917.337,659.406,917.341,659.782,917.093,659.95Zm.059,24.886a.458.458,0,0,1-.294.09,1.626,1.626,0,0,1-.409-.07,8,8,0,0,1-5.687-7.271c-.037-1.422-.031-2.867-.026-4.264,0-1.011.007-2.022,0-3.033,0-.319.029-.558.2-.69s.421-.1.736-.008a8.037,8.037,0,0,1,5.644,7.307c.026.827.018,1.667.012,2.479q0,.477-.006.952l.007.172c0,.358,0,.714,0,1.071,0,.86-.009,1.749.014,2.62A.76.76,0,0,1,917.152,684.836Zm-25.09,1.357a8,8,0,0,1,5.591-7.243c.339-.1.6-.14.787,0s.213.4.2.741c-.03.852-.025,1.727-.018,2.651,0,.414.006.845.006,1.3v.011c-.028.459-.014.952,0,1.473a11.83,11.83,0,0,1-.2,3.144,7.9,7.9,0,0,1-5.456,5.915,1.45,1.45,0,0,1-.448.094.465.465,0,0,1-.281-.082c-.181-.132-.215-.378-.212-.708.011-1,.007-2,0-3.006C892.031,689.078,892.026,687.623,892.062,686.193Zm5.8-25.991a2.418,2.418,0,0,1,.344-.059l.145-.019.182-.028.021.183a8.073,8.073,0,0,1-5.135,8.82,3.266,3.266,0,0,1-.927.27.4.4,0,0,1-.237-.069c-.217-.152-.216-.462-.214-1.143A7.973,7.973,0,0,1,897.862,660.2Zm-8.605,60.7c-.013,1.457-.026,2.915-.026,4.372v.2l-.2-.027a7.726,7.726,0,0,1-6.3-7.239c-.061-2.911-.053-5.871-.045-8.733,0-1.663.009-3.327,0-4.99a.757.757,0,0,1,.2-.618c.187-.142.438-.071.726.01a7.517,7.517,0,0,1,5.57,6.713C889.321,714.02,889.288,717.516,889.257,720.9Zm55.932,4.463a.438.438,0,0,1-.275.084,1.72,1.72,0,0,1-.439-.082,7.682,7.682,0,0,1-5.619-6.9c-.1-3.389-.081-6.839-.059-10.175.01-1.44.02-2.881.02-4.322v-.2l.2.023a7.637,7.637,0,0,1,6.325,7.222c.064,2.937.057,5.923.048,8.812,0,1.636-.009,3.273,0,4.909A.76.76,0,0,1,945.19,725.36Zm-9.888,6.464a38.109,38.109,0,0,1,22.691,9.146l.375.313h-.489c-.77,0-1.518-.008-2.249-.015-1.681-.016-3.272-.032-4.858.045-.1.005-.2.008-.294.008a4.715,4.715,0,0,1-3.239-1.258,53.744,53.744,0,0,0-5.774-4.414,62.3,62.3,0,0,0-6.255-3.49l-.784-.391ZM920.3,675.473a7.89,7.89,0,0,1,5.484-5.889.785.785,0,0,1,.7-.009.77.77,0,0,1,.207.654c-.011.984-.006,1.968,0,2.952.006,1.456.012,2.962-.031,4.443a7.96,7.96,0,0,1-5.626,7.214,1.7,1.7,0,0,1-.458.086.461.461,0,0,1-.294-.09.8.8,0,0,1-.2-.682c.026-.878.021-1.776.016-2.727,0-.422,0-.86,0-1.323v-.011c.028-.457.014-.947,0-1.465A11.645,11.645,0,0,1,920.3,675.473Zm4.749-24.326c.787-.327,1.146-.476,1.4-.305s.245.547.236,1.374a8,8,0,0,1-5.665,7.677c-.05.014-.1.034-.151.053a.981.981,0,0,1-.338.085.377.377,0,0,1-.2-.055.709.709,0,0,1-.246-.548A8.165,8.165,0,0,1,925.045,651.148ZM917.131,716a.478.478,0,0,1-.3.089,1.763,1.763,0,0,1-.489-.1,7.934,7.934,0,0,1-5.578-7.253c-.04-2.752-.035-5.551-.031-8.257,0-1.757,0-3.513,0-5.269a.821.821,0,0,1,.207-.684c.173-.13.411-.1.739,0a8.02,8.02,0,0,1,5.639,7.413c.028,1.526.02,3.078.014,4.579q0,.932-.006,1.866l0,.175q0,.929,0,1.859c0,1.59-.009,3.235.018,4.851A.872.872,0,0,1,917.131,716Zm.868,15.62a37.943,37.943,0,0,1,25.811,9.321l.353.31H893.35l.338-.308A37.449,37.449,0,0,1,918,731.619Zm-25.936-20.411a7.735,7.735,0,0,1,6.367-7.423l.2-.024v3.35q0,5.336-.009,10.665a7.163,7.163,0,0,1-.2,1.678,7.885,7.885,0,0,1-5.373,5.874,1.681,1.681,0,0,1-.519.12.454.454,0,0,1-.274-.082c-.163-.117-.231-.335-.228-.731.013-1.927.011-3.855.008-5.782C892.032,716.349,892.028,713.757,892.062,711.208ZM889.1,694.187a.452.452,0,0,1-.292.089,1.632,1.632,0,0,1-.413-.071,8,8,0,0,1-5.683-7.275c-.037-1.415-.031-2.852-.027-4.243,0-1.018.008-2.036,0-3.054a.822.822,0,0,1,.2-.687c.175-.132.421-.1.74-.007a8.038,8.038,0,0,1,5.641,7.309c.026.8.018,1.621.012,2.411q0,.462-.006.923l.007.173q0,.547,0,1.094c0,.884-.009,1.8.013,2.695A.757.757,0,0,1,889.1,694.187Zm-.057-24.929a.8.8,0,0,1-.419.113,2.781,2.781,0,0,1-1.208-.45c-.113-.062-.222-.122-.328-.175a8.054,8.054,0,0,1-4.331-8.425l.018-.177.177.02c3.232.358,6.118,3.655,6.3,7.2.008.144.03.3.052.468C889.382,668.38,889.468,669,889.043,669.258Zm-9.607,71.713a38.106,38.106,0,0,1,22.678-9.153l.833-.053-1.5.783c-1.714.894-3.488,1.818-5.145,2.874a61.153,61.153,0,0,0-5.59,4.191c-.477.387-.952.773-1.432,1.156a2.251,2.251,0,0,1-1.493.525h-.027c-1.946-.017-3.886-.016-5.943-.013l-2.757,0Z" transform="translate(-870.551 -647.793)" fill="#474747"/>
</svg>
