<?xml version="1.0" encoding="utf-8"?>
<svg xmlns="http://www.w3.org/2000/svg" width="121.749" height="96.275" viewBox="0 0 121.749 96.275">
  <g id="Groupe_724" data-name="Groupe 724" transform="translate(-2334.698 -649.417)">
    <path id="Tracé_6636" data-name="Tracé 6636" d="M2436.736,736.022c5.053.032,10.189.025,15.161.02l2.317,0c1.784,0,2.221-.445,2.222-2.259l0-3.506c.006-3.934.012-7.869-.008-11.8a16.036,16.036,0,0,0-12.275-15.644c-1.426-.36-2.857-.7-4.289-1.039q-1.364-.323-2.726-.651L2437,701.1a2.16,2.16,0,0,1-1.183-.56,2.43,2.43,0,0,1-.409-1.928c.009-.094.221-2.3,1.19-3.018a14.95,14.95,0,0,0,6.326-12.4c.046-3.434.045-6.3,0-9.016a15.014,15.014,0,0,0-22.044-13.045,20.259,20.259,0,0,0-4.284,3.279l-1.033.96-.429-1.344a20.5,20.5,0,0,0-7.414-10.6,18.967,18.967,0,0,0-12.248-4c-9.557.355-15.933,5.117-19.493,14.558l-.306.81-.82-.278a1.086,1.086,0,0,1-.517-.259c-.126-.115-.247-.234-.367-.354s-.212-.212-.324-.313c-4.511-4.092-9.586-5.244-15.086-3.425a14.147,14.147,0,0,0-10.1,11.907,57.889,57.889,0,0,0-.1,13.031,13.547,13.547,0,0,0,5.481,9.91,4.2,4.2,0,0,1,1.86,3.952,2.08,2.08,0,0,1-1.888,2.236c-2.425.5-4.771,1.1-6.747,1.611a15.74,15.74,0,0,0-11.056,9.265,16.294,16.294,0,0,0-.864,2.8c-.135.551-.275,1.119-.446,1.684V735a2.57,2.57,0,0,0,2.514,1.065c2.983-.029,5.968-.027,8.946-.027,2.729,0,5.456,0,8.182-.019a2.183,2.183,0,0,1,1.629.523,2.087,2.087,0,0,1,.459,1.609c-.036.8-.026,1.624-.017,2.424.011.863.021,1.755-.024,2.645a2.457,2.457,0,0,0,1.064,2.472h27.284c.941-.5,1.138-.987,1.135-1.55-.007-1.361-1.448-1.476-1.889-1.48l-.986-.006c-2.675-.02-5.44-.041-8.15.027a2.162,2.162,0,0,1-1.645-.5,2.218,2.218,0,0,1-.5-1.693c.07-3.256.043-6.528.013-9.015a1.875,1.875,0,0,0-.852-1.668,1.345,1.345,0,0,0-1.387.057c-.564.333-.792.856-.79,1.806q0,1.556,0,3.112c0,1.941-.01,3.95.025,5.92a1.7,1.7,0,0,1-1.991,1.975c-1.474-.041-2.98-.034-4.44-.027-.682,0-1.365.007-2.048.005l-.134,0a1.577,1.577,0,0,1-1.25-.377,1.49,1.49,0,0,1-.4-1.146c.039-1.485.007-3.009-.024-4.483a54.442,54.442,0,0,1,.249-8.257,18.215,18.215,0,0,1,13.782-15.459c1.958-.508,3.956-.982,5.887-1.442,1.706-.405,3.412-.811,5.111-1.243A1.927,1.927,0,0,1,2387,711.53c1.611,3.742,3.283,7.534,4.9,11.2l2.008,4.561a2.775,2.775,0,0,0,.772,1.2,1.416,1.416,0,0,0,1.216.27,1.918,1.918,0,0,0,1.179-1.15c1.055-2.352,2.087-4.714,3.118-7.077l2.12-4.831c.62-1.4,1.261-2.848,1.86-4.28a1.768,1.768,0,0,1,2.3-1.186c1.475.369,2.956.717,4.437,1.066,2.351.553,4.783,1.126,7.158,1.776a18.139,18.139,0,0,1,13.544,16.9c.109,2.355.093,4.743.077,7.053-.008,1.3-.017,2.609,0,3.912a1.725,1.725,0,0,1-.437,1.288,1.755,1.755,0,0,1-1.3.433c-2.635-.035-4.771-.033-6.725,0a1.774,1.774,0,0,1-1.327-.435,1.807,1.807,0,0,1-.448-1.366c.036-3.778.037-6.672,0-9.387a1.907,1.907,0,0,0-.818-1.658,1.349,1.349,0,0,0-1.355,0c-.424.22-.857.6-.855,1.714,0,1.014,0,2.028,0,3.042,0,2-.009,4.076.024,6.11a1.707,1.707,0,0,1-1.972,1.984c-2.451-.037-4.947-.031-7.36-.025l-2.514.005c-1.779,0-2.088.482-2.287,1.062-.191.559-.231,1.037.976,1.973h28.229a2.132,2.132,0,0,0,1.208-2.337c-.023-.807-.016-1.616-.009-2.424.009-.944.017-1.92-.026-2.865a2.021,2.021,0,0,1,.448-1.536A2.107,2.107,0,0,1,2436.736,736.022Zm-19.945-66.094a12,12,0,0,1,23.117,4.4,1.808,1.808,0,0,1-.458,1.374,1.765,1.765,0,0,1-1.334.423c-.951-.031-1.931-.026-3.06-.019-.519,0-1.077.006-1.688.006q-.669.032-1.341.031A31.071,31.071,0,0,1,2417.8,672.6,1.853,1.853,0,0,1,2416.791,669.928Zm-.876,8.86c0-1.417,0-2.2.671-2.639s1.365-.149,2.742.437a31.59,31.59,0,0,0,11.141,2.485c2.649.106,4.994.122,7.167.047a2.309,2.309,0,0,1,1.732.508,2.362,2.362,0,0,1,.558,1.808,15.588,15.588,0,0,1-1.632,7.89,12,12,0,0,1-10.5,6,12.74,12.74,0,0,1-2.257-.2,11.989,11.989,0,0,1-9.458-10.077,25.266,25.266,0,0,1-.154-3.218c0-.369,0-.722-.013-1.056ZM2378.3,669.23c.31-8.643,7.078-15.971,15.409-16.682a17.383,17.383,0,0,1,18.814,13.647,9.939,9.939,0,0,1,.245,3.927l-.219,1.276-7.412-4.356q-.974-.576-1.95-1.143c-1.4-.806-1.863-.739-2.922.428a19.346,19.346,0,0,1-10.046,5.924,22.4,22.4,0,0,1-5.2.484c-.474,0-.945-.006-1.414-.011-.661-.008-1.321-.015-1.982-.008-1.4.016-2.251.027-2.83-.566S2378.242,670.729,2378.3,669.23Zm-17.337-6.577a12.058,12.058,0,0,1,13.4,7.3,1.861,1.861,0,0,1-1.041,2.656,30.965,30.965,0,0,1-14.211,3.539q-.675,0-1.35-.032c-.607,0-1.156,0-1.667-.006-1.1-.005-2.049-.011-2.97.018a1.609,1.609,0,0,1-1.893-1.828A12.152,12.152,0,0,1,2360.958,662.653Zm-7.866,27.074c-1.854-2.793-1.936-5.906-1.858-9.116a1.5,1.5,0,0,1,.441-1.1,1.594,1.594,0,0,1,1.243-.359l.137,0c2.051-.012,4.1,0,6.147-.018a33.95,33.95,0,0,0,13.558-2.932c.053-.024.107-.052.16-.08a2.241,2.241,0,0,1,1.641-.276l.736.174-.049.755c-.068,1.082-.039,2.161-.008,3.3a18.818,18.818,0,0,1-.781,7.319,11.446,11.446,0,0,1-10.335,7.881c-.372.031-.739.046-1.1.046A11.556,11.556,0,0,1,2353.093,689.727ZM2360.684,718a21.2,21.2,0,0,0-4.255,13.054,2,2,0,0,1-.5,1.521,1.957,1.957,0,0,1-1.5.445c-1.682-.067-3.359-.066-4.987,0-.07,0-.142,0-.213,0a1.865,1.865,0,0,1-1.375-.464,2.036,2.036,0,0,1-.494-1.564c.044-2,.038-4.041.031-6.015q0-1.5,0-3.005a2.316,2.316,0,0,0-.359-1.5,1.363,1.363,0,0,0-1.62-.492c-.449.139-1.048.46-1.054,1.654-.01,2.026-.008,4.052-.007,6.078V730.2c0,2.414-.387,2.808-2.761,2.808-3.457,0-3.854-.4-3.854-3.885l0-6.494c0-1.291,0-2.583,0-3.874a12.886,12.886,0,0,1,10.162-13.031c1.031-.262,2.066-.5,3.1-.742,1.112-.258,2.225-.516,3.33-.8a1.7,1.7,0,0,1,2.309,1.1c1.247,3.089,2.626,6.4,4.343,10.42A2.123,2.123,0,0,1,2360.684,718Zm4.3-9.036c-.3.731-.6,1.483-.929,2.262l-.826,1.971-.825-1.971c-.361-.863-.719-1.7-1.067-2.516-.886-2.069-1.722-4.023-2.453-6.027a5.9,5.9,0,0,1-.206-2.371c.015-.3.031-.6.023-.89a1.287,1.287,0,0,1,.422-1.065,1.427,1.427,0,0,1,1.265-.225,14.634,14.634,0,0,0,5.648-.008,1.477,1.477,0,0,1,1.241.222,1.538,1.538,0,0,1,.483,1.268,10.121,10.121,0,0,1-.79,4.721C2366.271,705.81,2365.646,707.344,2364.985,708.967Zm15.292-1.112c-1.669.6-3.384,1.041-5.042,1.466a45.692,45.692,0,0,0-6.223,1.922l-2,.83,2.991-7.186a1.368,1.368,0,0,1,1.713-.823q3.278.814,6.56,1.612l4.8,1.173Zm5.309-4.983c.006.129.01.258.012.385a1.408,1.408,0,0,1-.565,1.319,1.067,1.067,0,0,1-.556.153,1.654,1.654,0,0,1-.8-.238,28.533,28.533,0,0,0-7.959-2.576c-1.051-.231-2.137-.47-3.2-.751a2.042,2.042,0,0,1-1.763-2.17,3.953,3.953,0,0,1,1.913-3.994,11.963,11.963,0,0,0,3.3-3.629l.834-1.2.689,1.289a20.961,20.961,0,0,0,3.2,4.574,14.714,14.714,0,0,0,3.261,2.8,2.982,2.982,0,0,1,1.648,3.244A4.51,4.51,0,0,0,2385.586,702.872Zm15.637,7.909c-1.083,2.087-2.023,4.314-2.932,6.466-.412.979-.826,1.957-1.253,2.928-.116.263-.245.52-.406.846l-1.141,2.333-.778-1.767q-.862-1.955-1.712-3.851c-1.461-3.27-2.841-6.358-4.125-9.545a7.788,7.788,0,0,1-.294-3.6,14.554,14.554,0,0,0,.065-1.491,1.253,1.253,0,0,1,.452-1.075,1.413,1.413,0,0,1,1.3-.155,20.113,20.113,0,0,0,10.313.015,1.422,1.422,0,0,1,1.273.173,1.541,1.541,0,0,1,.51,1.3C2402.533,706,2402.466,708.385,2401.223,710.781Zm-5.6-11.259h-.2a17.2,17.2,0,0,1-16.946-14.929,31.69,31.69,0,0,1-.187-4.695c.007-.822.016-1.672-.013-2.5a1.577,1.577,0,0,1,.4-1.212,1.686,1.686,0,0,1,1.312-.437c.943.015,1.889.012,3.024.009l1.666,0h.025a22.074,22.074,0,0,0,14.94-4.712,1.579,1.579,0,0,1,.194-.137,2.848,2.848,0,0,0,.567-.542,2.467,2.467,0,0,1,2.172-1.1,5.055,5.055,0,0,1,2.1,1c.214.147.427.295.644.421q.984.577,1.968,1.16c1.392.822,2.83,1.673,4.259,2.477a2.326,2.326,0,0,1,1.343,2.324c-.048,1-.032,2.037-.016,3.037a30.954,30.954,0,0,1-.219,5.239A17.314,17.314,0,0,1,2395.624,699.522Zm11.252,5.235-1.014.433-.214-1.082a10.01,10.01,0,0,1-.123-2.289c.009-.326.019-.649.007-.97a1.5,1.5,0,0,1,.794-1.359,21.033,21.033,0,0,0,7.354-7.975l.687-1.268.83,1.179a21.075,21.075,0,0,0,4.429,4.538,2.787,2.787,0,0,1,.751,2.863,4.812,4.812,0,0,0-.074.779c.023.627-.242,1.4-1.632,1.533a1.508,1.508,0,0,0-.237.029c-1.175.326-2.373.607-3.532.878-1.559.364-3.17.742-4.71,1.23a14.351,14.351,0,0,0-1.941.838C2407.809,704.331,2407.357,704.552,2406.876,704.757Zm15.248,6.539a32.759,32.759,0,0,0-5.659-1.766c-1.26-.286-2.516-.6-3.822-.922l-3.759-.921,1.657-1.132a6.344,6.344,0,0,1,2.387-.925c.149-.034.3-.066.441-.1,1.1-.276,2.2-.535,3.309-.8.845-.2,1.69-.4,2.533-.6l.086-.022a1.377,1.377,0,0,1,1.839.81c.483,1.182.973,2.359,1.5,3.637l1.493,3.593Zm6.715-.371-.213.508-1.624.112-.187-.719a21.91,21.91,0,0,0-1.5-3.764c-1.031-2.191-2.1-4.456-1.955-7.206a1.887,1.887,0,0,1,.593-1.484,1.756,1.756,0,0,1,1.495-.2,12.4,12.4,0,0,0,5.027-.006,1.729,1.729,0,0,1,1.453.229,1.706,1.706,0,0,1,.535,1.362,10.091,10.091,0,0,1-.842,4.6c-.7,1.5-1.341,3.075-1.963,4.594C2429.385,709.606,2429.115,710.267,2428.839,710.925Zm1.507,7.013a1.977,1.977,0,0,1-.275-2.1q1.461-3.45,2.9-6.906l1.606-3.85a1.338,1.338,0,0,1,1.745-1.011c1.088.311,2.236.551,3.345.784a26.369,26.369,0,0,1,6.639,2.024c4.559,2.309,6.942,6.206,7.086,11.587.037,1.4.027,2.808.017,4.175,0,.625-.008,1.251-.008,1.875s0,1.273-.009,1.909c-.01,1.5-.021,3.053.032,4.568a2.04,2.04,0,0,1-.5,1.6,1.769,1.769,0,0,1-1.272.441c-.119,0-.233-.006-.342-.015a17.577,17.577,0,0,0-2.637,0,1.817,1.817,0,0,1-1.418-.4,1.857,1.857,0,0,1-.481-1.443c.042-3.221.03-6.414.01-9.384,0-.785-.24-1.742-1.328-1.848a1.5,1.5,0,0,0-1.162.316,1.977,1.977,0,0,0-.531,1.475c-.031,3.439-.042,6.33.014,9.256a2.063,2.063,0,0,1-.5,1.581,2.027,2.027,0,0,1-1.569.457c-1.723-.076-3.477-.045-5.125-.009a1.911,1.911,0,0,1-1.431-.432,1.841,1.841,0,0,1-.471-1.364A21.56,21.56,0,0,0,2430.347,717.938Z" transform="translate(0)" fill="#474747"/>
  </g>
</svg>
