<?xml version="1.0" encoding="utf-8"?>
<svg xmlns="http://www.w3.org/2000/svg" width="96.674" height="96.275" viewBox="0 0 96.674 96.275">
  <g id="Groupe_726" data-name="Groupe 726" transform="translate(-2860.628 -637.507)">
    <path id="Tracé_6717" data-name="Tracé 6717" d="M2933.71,639.511a3.615,3.615,0,0,0-3.413-2h-.045c-3.827.03-7.615.03-11.257,0h-.048a3.611,3.611,0,0,0-3.42,1.981c-1.709,3.017-3.565,6.229-5.671,9.821a3.619,3.619,0,0,0,.031,3.994c2.183,3.706,3.972,6.8,5.627,9.739a3.566,3.566,0,0,0,3.365,2h.085c1.308-.02,2.616-.015,3.922-.01l1.71,0q.856,0,1.714-.005c.564,0,1.136-.005,1.712-.005.735,0,1.475,0,2.208.018a3.619,3.619,0,0,0,3.517-2.054c1.928-3.422,3.75-6.582,5.573-9.661a3.631,3.631,0,0,0,.012-4.072C2937.619,646.354,2935.833,643.258,2933.71,639.511Zm3.037,12.592c-1.592,2.727-3.468,5.957-5.325,9.238a1.566,1.566,0,0,1-1.578.864c-1.263-.017-2.525-.014-3.789-.011l-1.449,0-1.456,0c-1.26,0-2.523-.007-3.782.012h-.041a1.6,1.6,0,0,1-1.539-.873c-1.543-2.72-3.235-5.655-5.327-9.237a1.464,1.464,0,0,1-.011-1.625c1.869-3.2,3.68-6.329,5.385-9.315a1.439,1.439,0,0,1,1.383-.816h.013c3.65.02,7.272.02,10.77,0h.013a1.467,1.467,0,0,1,1.379.833c2.072,3.63,3.782,6.59,5.381,9.316A1.445,1.445,0,0,1,2936.747,652.1Z" transform="translate(-16.837)" fill="#474747"/>
    <path id="Tracé_6718" data-name="Tracé 6718" d="M2937.5,705.337h7.438c2.538,0,3.311.77,3.312,3.294v3.044c0,2.417-.005,4.835.012,7.252a1.591,1.591,0,0,0,.572,1.312,1.417,1.417,0,0,0,1.27.175c.241-.069.973-.281.978-1.711q.015-4.934,0-9.868v-.43c0-3.8-2.1-5.9-5.9-5.9h-2.4q-10.241,0-20.487.015h-.01a1.49,1.49,0,0,1-1.609-1.114,6.616,6.616,0,0,0-4.126-4.145,1.494,1.494,0,0,1-1.095-1.641c.032-2.009.034-4.157.005-6.566a1.572,1.572,0,0,0-.5-1.221,1.373,1.373,0,0,0-1.149-.263c-.775.131-1.157.65-1.166,1.586-.021,2.145-.036,4.246.01,6.373a1.61,1.61,0,0,1-1.182,1.782,6.4,6.4,0,0,0-3.959,3.944,1.7,1.7,0,0,1-1.862,1.265h-.017c-7.233-.024-14.869-.027-22.694-.01a5.2,5.2,0,0,0-5.452,5.452c-.012,1.126-.009,2.251-.007,3.377l0,1.482,0,1.762c0,1.477-.006,2.953.013,4.43a1.342,1.342,0,0,0,1.327,1.462,1.408,1.408,0,0,0,1.486-1.427,4.6,4.6,0,0,0,.012-.519l0-3.314q0-3.544,0-7.088c0-1.872.9-2.783,2.73-2.785,7.662-.007,15.322,0,22.982-.016h.009a1.311,1.311,0,0,1,1.4.987,6.76,6.76,0,0,0,4.212,4.191,1.366,1.366,0,0,1,1,1.506c-.022,1.554-.024,3.2-.006,5.33a1.913,1.913,0,0,0,.477,1.382,1.243,1.243,0,0,0,.97.349c1.13-.018,1.375-.932,1.38-1.7v-.293c.012-1.651.026-3.358-.012-5.033a1.415,1.415,0,0,1,1.062-1.557,6.569,6.569,0,0,0,4.106-4.045,1.585,1.585,0,0,1,1.71-1.117c2.86.015,5.72.014,8.58.011Zm-23.408,2.736h-.019a4.225,4.225,0,1,1-.022-8.45h.017a4.251,4.251,0,0,1,3.028,1.265,4.209,4.209,0,0,1-3,7.185Z" transform="translate(-5.834 -17.319)" fill="#474747"/>
    <path id="Tracé_6719" data-name="Tracé 6719" d="M2994.243,766.441q-.107-.224-.211-.451c-.183-.393-.354-.765-.558-1.119q-4.82-8.375-9.661-16.737a3.263,3.263,0,0,0-6.077-.019q-1.528,2.638-3.04,5.285c-2.187,3.818-4.45,7.766-6.757,11.6a3.485,3.485,0,0,0-.15,3.63,3.533,3.533,0,0,0,3.221,1.672c6.484-.165,12.956-.1,18.984-.014,2.315.04,3.565-.723,4.25-2.525Zm-24.347.916,10.869-18.836,10.874,18.836Z" transform="translate(-36.94 -37.572)" fill="#474747"/>
    <path id="Tracé_6720" data-name="Tracé 6720" d="M2933.247,767.626a1.494,1.494,0,0,0,2.029-.218,13.2,13.2,0,0,0-8.848-22.96c-.218.016-.435.028-.654.04a12.1,12.1,0,0,0-1.369.125,13.325,13.325,0,0,0-10.8,15.9,12.433,12.433,0,0,0,3.942,6.782,1.367,1.367,0,0,0,1.99.034,1.383,1.383,0,0,0,.034-1.983c-.1-.122-.221-.234-.336-.346-.083-.08-.166-.161-.246-.244a10.3,10.3,0,0,1-1.514-12.129,10.115,10.115,0,0,1,10.993-5.141,10.389,10.389,0,0,1,5.138,17.614l-.129.126a3.655,3.655,0,0,0-.559.631A1.366,1.366,0,0,0,2933.247,767.626Z" transform="translate(-18.236 -37.017)" fill="#474747"/>
    <path id="Tracé_6721" data-name="Tracé 6721" d="M2932.7,783.256a1.422,1.422,0,0,0,1.372-1.427,1.374,1.374,0,0,0-1.372-1.394h0a1.465,1.465,0,0,0-1.437,1.372,1.415,1.415,0,0,0,.426,1.01A1.459,1.459,0,0,0,2932.7,783.256Z" transform="translate(-24.449 -49.474)" fill="#474747"/>
    <path id="Tracé_6722" data-name="Tracé 6722" d="M2885.055,750.665a4.432,4.432,0,0,0-4.613-4.733c-2.441-.023-4.943-.035-7.486-.035-2.52,0-5.081.012-7.664.035a4.462,4.462,0,0,0-4.658,4.8q-.014,7.388,0,14.776a4.54,4.54,0,0,0,4.815,4.85q7.387.016,14.777,0a4.5,4.5,0,0,0,4.831-4.823c.01-1.714.008-3.43.006-5.144l0-2.289,0-2.359C2885.065,754.047,2885.069,752.356,2885.055,750.665Zm-2.828,9.591q0,2.572,0,5.144c-.005,1.525-.608,2.119-2.148,2.121q-3.52,0-7.041,0-3.677,0-7.354,0c-1.591,0-2.211-.607-2.213-2.166q-.005-7.245,0-14.49c0-1.5.6-2.109,2.063-2.112q7.343-.016,14.683,0c1.421,0,2,.6,2.009,2.058q.011,2.609,0,5.218v4.226Z" transform="translate(0 -37.518)" fill="#474747"/>
  </g>
</svg>
