<?xml version="1.0" encoding="utf-8"?>
<svg xmlns="http://www.w3.org/2000/svg" width="78.471" height="96.275" viewBox="0 0 78.471 96.275">
  <g id="QgdW0V" transform="translate(-2695.064 -648.805)">
    <g id="Groupe_711" data-name="Groupe 711" transform="translate(2695.064 648.804)">
      <g id="Groupe_710" data-name="Groupe 710">
        <path id="Tracé_6713" data-name="Tracé 6713" d="M2728.968,693.247q-9.378,4.678-18.756,9.356c-1.71.852-2.468.6-3.324-1.12-3.1-6.217-6.224-12.427-9.3-18.657a23.447,23.447,0,0,1,40.469-23.535,62.223,62.223,0,0,1,3.172,5.963c2.535,5.032,5.038,10.08,7.552,15.123.967,1.938.748,2.613-1.156,3.564Zm-5.616-11.312c5.581-2.784,11.152-5.589,16.753-8.33.867-.425.924-.768.5-1.58-1.46-2.8-2.845-5.634-4.244-8.462a20.728,20.728,0,0,0-3.463-4.971,19.814,19.814,0,0,0-33.119,20.1c1.4,3.9,3.609,7.428,5.328,11.182.347.759.646.872,1.41.486C2712.114,687.522,2717.737,684.736,2723.351,681.935Zm1.655,3.207-5.647,2.817c-3.764,1.878-7.52,3.776-11.3,5.617-.726.353-.821.666-.43,1.343a23.774,23.774,0,0,1,1.455,2.923c.352.868.716.966,1.564.539q15.757-7.921,31.553-15.767c.74-.369,1.464-.775,2.223-1.1.608-.256.657-.557.356-1.108a34.472,34.472,0,0,1-1.554-3.127c-.341-.807-.683-.921-1.487-.513C2736.176,679.592,2730.586,682.359,2725.007,685.142Z" transform="translate(-2695.064 -648.804)" fill="#474747"/>
        <path id="Tracé_6714" data-name="Tracé 6714" d="M2737.63,742.659q4.655,9.334,9.311,18.666a5.66,5.66,0,0,1,.428.919,1.79,1.79,0,0,1-3.177,1.584,6.219,6.219,0,0,1-.528-.993q-9.263-18.564-18.524-37.129c-.05-.1-.1-.2-.15-.3-.67-1.366-.471-2.4.562-2.917s1.984-.057,2.666,1.307Q2732.926,733.224,2737.63,742.659Z" transform="translate(-2702.93 -668.372)" fill="#474747"/>
        <path id="Tracé_6715" data-name="Tracé 6715" d="M2751.991,735.489q-4.63-9.282-9.261-18.565a6.284,6.284,0,0,1-.476-1.02,1.79,1.79,0,0,1,3.175-1.586,5.631,5.631,0,0,1,.477.894c6.208,12.443,16.934,31.33,23.141,43.774a5.6,5.6,0,0,1,.427.918,1.79,1.79,0,0,1-3.176,1.586,6.232,6.232,0,0,1-.528-.993C2762.682,754.309,2755.078,741.677,2751.991,735.489Z" transform="translate(-2707.604 -666.034)" fill="#474747"/>
        <path id="Tracé_6716" data-name="Tracé 6716" d="M2769.544,726.605q-4.605-9.231-9.21-18.463a6.338,6.338,0,0,1-.476-1.021,1.79,1.79,0,0,1,3.176-1.585,5.614,5.614,0,0,1,.477.894c6.208,12.443,20.518,37.773,26.725,50.217a5.6,5.6,0,0,1,.427.918,1.79,1.79,0,0,1-3.176,1.585,6.188,6.188,0,0,1-.528-.993C2783.853,751.936,2772.647,732.828,2769.544,726.605Z" transform="translate(-2712.292 -663.695)" fill="#474747"/>
      </g>
    </g>
  </g>
</svg>
