<?xml version="1.0" encoding="utf-8"?>
<svg xmlns="http://www.w3.org/2000/svg" width="96.261" height="96.275" viewBox="0 0 96.261 96.275">
  <g id="Groupe_725" data-name="Groupe 725" transform="translate(-2541.649 -649.416)">
    <path id="Tracé_6640" data-name="Tracé 6640" d="M2637.907,674.425a6.607,6.607,0,0,0-.06-.929,1.276,1.276,0,0,0-1.223-1.263,5.072,5.072,0,0,0-.795-.054,32.441,32.441,0,0,1-3.523-.066,2.236,2.236,0,0,1,.256-4.456c.987-.032,1.974-.02,2.962-.011a7.174,7.174,0,0,0,.994-.062,1.344,1.344,0,0,0,1.334-1.321,5.02,5.02,0,0,0,.052-.7q0-7.038,0-14.076a5.13,5.13,0,0,0-.06-.761,1.323,1.323,0,0,0-1.261-1.244,6.652,6.652,0,0,0-1.028-.057q-30.416,0-60.83,0-15.407,0-30.815-.009a3.419,3.419,0,0,0-1.3.205,1.341,1.341,0,0,0-.944,1.394c0,5.024.009,10.049-.011,15.074a1.39,1.39,0,0,0,.739,1.269,2.36,2.36,0,0,0,1.51.286,25.423,25.423,0,0,1,3.093.009,2.237,2.237,0,0,1,2.227,2.165,2.205,2.205,0,0,1-2.035,2.3,22.138,22.138,0,0,1-3.323.033,4.032,4.032,0,0,0-.8.028,1.556,1.556,0,0,0-1.4,1.63q0,25.689-.007,51.379a1.389,1.389,0,0,0,.328.938,1.5,1.5,0,0,0,2.688-.808c.017-.2.028-.4.028-.6q0-23.51,0-47.019a8.829,8.829,0,0,1,.085-1.493.953.953,0,0,1,.9-.909,13.265,13.265,0,0,1,1.624-.116,5.3,5.3,0,0,0,1.347-10.32c-.2-.068-.412-.093-.61-.161a.571.571,0,0,1-.293-.99,3.979,3.979,0,0,1,.277-.288c3.393-3.4,6.795-6.79,10.171-10.206a2.38,2.38,0,0,1,1.827-.755q36.672.011,73.342,0c.211,0,.423,0,.632.018a.875.875,0,0,1,.853.857c.017.177.018.354.018.532,0,1.985-.014,3.97-.015,5.956a27.458,27.458,0,0,0,.087,3.323,1.974,1.974,0,0,1-.035.562,1.056,1.056,0,0,1-.9.9,2.734,2.734,0,0,1-.827.015,5.249,5.249,0,0,0-3.263.684,5.3,5.3,0,0,0-.333,8.932,6.32,6.32,0,0,0,3.51.969,5.532,5.532,0,0,1,1.093.081.732.732,0,0,1,.6.626,6.109,6.109,0,0,1,.065,1.227q.015,31.862.027,63.725a6.52,6.52,0,0,1-.041.8,1.029,1.029,0,0,1-.885.944,3.993,3.993,0,0,1-.862.052q-17.154-.005-34.308-.012-17.636,0-35.273.011-8.568,0-17.138,0a7.654,7.654,0,0,1-.829-.055,1.05,1.05,0,0,1-1-.839,1.312,1.312,0,0,0-1.219-1.007,1.641,1.641,0,0,0-1.668,1.411q0,1.1,0,2.2a.5.5,0,0,0,.046.324c.4.515.759,1,1.555,1q23.26-.028,46.521-.014h46.322a2.824,2.824,0,0,1,.365,0,.959.959,0,0,0,.852-.358,2.331,2.331,0,0,0,.588-1.715Q2637.908,709.016,2637.907,674.425Zm-84.082-21.636q-4.4,4.4-8.8,8.8c-.054.055-.109.11-.167.163-.083.076-.143.054-.158-.055a2.429,2.429,0,0,1-.009-.3q-.007-3.859-.011-7.718a3.107,3.107,0,0,1,.038-.529.738.738,0,0,1,.655-.655,2.127,2.127,0,0,1,.365-.022q4.009,0,8.017.006c.087,0,.174.009.288.015A.626.626,0,0,1,2553.825,652.789Z" fill="#474747"/>
    <path id="Tracé_6641" data-name="Tracé 6641" d="M2580.2,720.381a12.136,12.136,0,0,0,.052,1.3,5.1,5.1,0,0,0,2.884,4.367,6.723,6.723,0,0,0,3.008.593q14.542,0,29.084,0a8.6,8.6,0,0,0,1.161-.067,5.049,5.049,0,0,0,4.106-2.745,6.372,6.372,0,0,0,.631-2.964c-.005-7.41.006-14.819-.02-22.229a5.192,5.192,0,0,0-5.4-5.335q-7.5-.005-15.007,0-7.4,0-14.808,0a6.813,6.813,0,0,0-1.061.068,5.052,5.052,0,0,0-4.008,2.786,6.706,6.706,0,0,0-.625,3.068Q2580.2,709.8,2580.2,720.381Zm3.1-22.07a2.1,2.1,0,0,1,2.055-1.949c.331-.031.664-.039,1-.039q7.154,0,14.307,0H2615a6.372,6.372,0,0,1,1.225.082,2.031,2.031,0,0,1,1.83,2.01,8.931,8.931,0,0,1,.044.9q0,10.647,0,21.294c0,.255-.012.51-.033.763a2.175,2.175,0,0,1-2.241,2.206c-.144.011-.288.011-.432.011l-29.479,0a4.094,4.094,0,0,1-.531-.023,2.188,2.188,0,0,1-2.122-2.294c-.013-.187-.01-.377-.01-.565q0-10.746,0-21.493A5.907,5.907,0,0,1,2583.3,698.311Z" transform="translate(-10.893 -12.398)" fill="#474747"/>
    <path id="Tracé_6642" data-name="Tracé 6642" d="M2543.115,767.874a1.523,1.523,0,1,0,.013-3.045,1.524,1.524,0,0,0-.013,3.045Z" transform="translate(-0.005 -32.61)" fill="#474747"/>
    <path id="Tracé_6643" data-name="Tracé 6643" d="M2660.938,738.562a1.516,1.516,0,1,0-1.505-1.55A1.55,1.55,0,0,0,2660.938,738.562Z" transform="translate(-33.28 -24.332)" fill="#474747"/>
    <path id="Tracé_6644" data-name="Tracé 6644" d="M2662.463,663.1a1.515,1.515,0,1,0-3.03.013,1.536,1.536,0,0,0,1.537,1.509A1.551,1.551,0,0,0,2662.463,663.1Z" transform="translate(-33.28 -3.441)" fill="#474747"/>
    <path id="Tracé_6645" data-name="Tracé 6645" d="M2619.827,673.673a1.523,1.523,0,0,0,1.538,1.512,1.514,1.514,0,1,0-1.538-1.512Z" transform="translate(-22.09 -6.426)" fill="#474747"/>
    <path id="Tracé_6646" data-name="Tracé 6646" d="M2606.624,673.657a1.514,1.514,0,1,0,1.519-1.5A1.544,1.544,0,0,0,2606.624,673.657Z" transform="translate(-18.359 -6.426)" fill="#474747"/>
    <path id="Tracé_6647" data-name="Tracé 6647" d="M2568.552,738.563a1.518,1.518,0,1,0-1.538-1.51A1.543,1.543,0,0,0,2568.552,738.563Z" transform="translate(-7.167 -24.331)" fill="#474747"/>
    <path id="Tracé_6648" data-name="Tracé 6648" d="M2568.524,664.627a1.516,1.516,0,1,0-1.51-1.512A1.545,1.545,0,0,0,2568.524,664.627Z" transform="translate(-7.167 -3.441)" fill="#474747"/>
    <path id="Tracé_6649" data-name="Tracé 6649" d="M2659.448,747.575a1.532,1.532,0,0,0,1.5,1.549,1.517,1.517,0,0,0,.025-3.034A1.526,1.526,0,0,0,2659.448,747.575Z" transform="translate(-33.284 -27.316)" fill="#474747"/>
    <path id="Tracé_6650" data-name="Tracé 6650" d="M2621.365,746.092a1.516,1.516,0,0,0-.064,3.03,1.516,1.516,0,1,0,.064-3.03Z" transform="translate(-22.093 -27.316)" fill="#474747"/>
    <path id="Tracé_6651" data-name="Tracé 6651" d="M2568.532,749.123a1.515,1.515,0,1,0-1.519-1.5A1.548,1.548,0,0,0,2568.532,749.123Z" transform="translate(-7.167 -27.316)" fill="#474747"/>
    <path id="Tracé_6652" data-name="Tracé 6652" d="M2621.345,661.593a1.513,1.513,0,1,0,1.51,1.511A1.548,1.548,0,0,0,2621.345,661.593Z" transform="translate(-22.089 -3.441)" fill="#474747"/>
    <path id="Tracé_6653" data-name="Tracé 6653" d="M2580.218,673.672a1.514,1.514,0,1,0,1.5-1.515A1.552,1.552,0,0,0,2580.218,673.672Z" transform="translate(-10.898 -6.426)" fill="#474747"/>
    <path id="Tracé_6654" data-name="Tracé 6654" d="M2581.747,746.092a1.516,1.516,0,1,0,1.5,1.523A1.549,1.549,0,0,0,2581.747,746.092Z" transform="translate(-10.898 -27.316)" fill="#474747"/>
    <path id="Tracé_6655" data-name="Tracé 6655" d="M2609.649,758.168a1.512,1.512,0,1,0-1.539,1.512A1.532,1.532,0,0,0,2609.649,758.168Z" transform="translate(-18.359 -30.302)" fill="#474747"/>
    <path id="Tracé_6656" data-name="Tracé 6656" d="M2568.538,675.188a1.516,1.516,0,1,0-1.526-1.5A1.555,1.555,0,0,0,2568.538,675.188Z" transform="translate(-7.166 -6.425)" fill="#474747"/>
    <path id="Tracé_6657" data-name="Tracé 6657" d="M2568.5,756.658a1.51,1.51,0,1,0,1.538,1.477A1.526,1.526,0,0,0,2568.5,756.658Z" transform="translate(-7.168 -30.302)" fill="#474747"/>
    <path id="Tracé_6658" data-name="Tracé 6658" d="M2634.532,672.157a1.515,1.515,0,1,0,1.515,1.53A1.521,1.521,0,0,0,2634.532,672.157Z" transform="translate(-25.823 -6.426)" fill="#474747"/>
    <path id="Tracé_6659" data-name="Tracé 6659" d="M2608.111,746.092a1.515,1.515,0,1,0,1.539,1.517A1.542,1.542,0,0,0,2608.111,746.092Z" transform="translate(-18.359 -27.316)" fill="#474747"/>
    <path id="Tracé_6660" data-name="Tracé 6660" d="M2570.031,726.522a1.509,1.509,0,0,0-3.016-.095A1.549,1.549,0,0,0,2568.5,728,1.522,1.522,0,0,0,2570.031,726.522Z" transform="translate(-7.167 -21.348)" fill="#474747"/>
    <path id="Tracé_6661" data-name="Tracé 6661" d="M2581.728,661.594a1.516,1.516,0,1,0,1.519,1.538A1.544,1.544,0,0,0,2581.728,661.594Z" transform="translate(-10.898 -3.441)" fill="#474747"/>
    <path id="Tracé_6662" data-name="Tracé 6662" d="M2634.561,749.125a1.516,1.516,0,1,0-1.519-1.529A1.526,1.526,0,0,0,2634.561,749.125Z" transform="translate(-25.823 -27.317)" fill="#474747"/>
    <path id="Tracé_6663" data-name="Tracé 6663" d="M2629.455,684.24a1.538,1.538,0,0,0-1.5-1.517,1.521,1.521,0,0,0-1.516,1.494,1.506,1.506,0,0,0,1.515,1.528A1.522,1.522,0,0,0,2629.455,684.24Z" transform="translate(-23.957 -9.411)" fill="#474747"/>
    <path id="Tracé_6664" data-name="Tracé 6664" d="M2647.738,728a1.513,1.513,0,1,0-1.5-1.549A1.534,1.534,0,0,0,2647.738,728Z" transform="translate(-29.551 -21.349)" fill="#474747"/>
    <path id="Tracé_6665" data-name="Tracé 6665" d="M2662.458,705.353a1.512,1.512,0,1,0-1.529,1.51A1.515,1.515,0,0,0,2662.458,705.353Z" transform="translate(-33.28 -15.383)" fill="#474747"/>
    <path id="Tracé_6666" data-name="Tracé 6666" d="M2649.255,715.913a1.512,1.512,0,0,0-3.024,0,1.512,1.512,0,1,0,3.024,0Z" transform="translate(-29.55 -18.366)" fill="#474747"/>
    <path id="Tracé_6667" data-name="Tracé 6667" d="M2649.256,673.687a1.512,1.512,0,1,0-1.519,1.5A1.54,1.54,0,0,0,2649.256,673.687Z" transform="translate(-29.55 -6.425)" fill="#474747"/>
    <path id="Tracé_6668" data-name="Tracé 6668" d="M2608.145,770.241a1.5,1.5,0,1,0,0-3.009,1.5,1.5,0,0,0-1.518,1.52A1.521,1.521,0,0,0,2608.145,770.241Z" transform="translate(-18.359 -33.289)" fill="#474747"/>
    <path id="Tracé_6669" data-name="Tracé 6669" d="M2568.514,770.241a1.5,1.5,0,1,0,.044-3.009,1.5,1.5,0,1,0-.044,3.009Z" transform="translate(-7.167 -33.289)" fill="#474747"/>
    <path id="Tracé_6670" data-name="Tracé 6670" d="M2608.115,661.6a1.516,1.516,0,1,0,1.534,1.52A1.541,1.541,0,0,0,2608.115,661.6Z" transform="translate(-18.359 -3.442)" fill="#474747"/>
    <path id="Tracé_6671" data-name="Tracé 6671" d="M2647.735,661.593a1.516,1.516,0,1,0,1.522,1.5A1.534,1.534,0,0,0,2647.735,661.593Z" transform="translate(-29.55 -3.441)" fill="#474747"/>
    <path id="Tracé_6672" data-name="Tracé 6672" d="M2594.921,675.18a1.49,1.49,0,0,0,1.5-1.494,1.514,1.514,0,0,0-1.482-1.521,1.508,1.508,0,1,0-.021,3.015Z" transform="translate(-14.62 -6.428)" fill="#474747"/>
    <path id="Tracé_6673" data-name="Tracé 6673" d="M2659.433,768.71a1.513,1.513,0,1,0,1.53-1.478A1.519,1.519,0,0,0,2659.433,768.71Z" transform="translate(-33.28 -33.289)" fill="#474747"/>
    <path id="Tracé_6674" data-name="Tracé 6674" d="M2596.437,747.61a1.5,1.5,0,1,0-1.49,1.514A1.513,1.513,0,0,0,2596.437,747.61Z" transform="translate(-14.633 -27.318)" fill="#474747"/>
    <path id="Tracé_6675" data-name="Tracé 6675" d="M2556.828,737.064a1.5,1.5,0,1,0-3-.054,1.5,1.5,0,1,0,3,.054Z" transform="translate(-3.443 -24.334)" fill="#474747"/>
    <path id="Tracé_6676" data-name="Tracé 6676" d="M2660.924,724.971a1.514,1.514,0,0,0,.038,3.028,1.514,1.514,0,1,0-.038-3.028Z" transform="translate(-33.283 -21.348)" fill="#474747"/>
    <path id="Tracé_6677" data-name="Tracé 6677" d="M2555.331,724.987a1.48,1.48,0,0,0-1.5,1.493,1.5,1.5,0,0,0,1.512,1.524,1.521,1.521,0,0,0,1.484-1.487A1.484,1.484,0,0,0,2555.331,724.987Z" transform="translate(-3.443 -21.353)" fill="#474747"/>
    <path id="Tracé_6678" data-name="Tracé 6678" d="M2594.96,664.623a1.511,1.511,0,1,0-1.527-1.482A1.514,1.514,0,0,0,2594.96,664.623Z" transform="translate(-14.632 -3.443)" fill="#474747"/>
    <path id="Tracé_6679" data-name="Tracé 6679" d="M2660.955,759.679a1.511,1.511,0,1,0-1.521-1.5A1.535,1.535,0,0,0,2660.955,759.679Z" transform="translate(-33.28 -30.302)" fill="#474747"/>
    <path id="Tracé_6680" data-name="Tracé 6680" d="M2634.552,756.658a1.511,1.511,0,1,0,.008,3.023,1.486,1.486,0,0,0,1.487-1.512A1.517,1.517,0,0,0,2634.552,756.658Z" transform="translate(-25.823 -30.302)" fill="#474747"/>
    <path id="Tracé_6681" data-name="Tracé 6681" d="M2621.312,756.657a1.512,1.512,0,1,0,1.543,1.51A1.537,1.537,0,0,0,2621.312,756.657Z" transform="translate(-22.089 -30.301)" fill="#474747"/>
    <path id="Tracé_6682" data-name="Tracé 6682" d="M2634.545,661.6a1.512,1.512,0,0,0-1.5,1.467,1.5,1.5,0,1,0,3,.034A1.509,1.509,0,0,0,2634.545,661.6Z" transform="translate(-25.823 -3.443)" fill="#474747"/>
    <path id="Tracé_6683" data-name="Tracé 6683" d="M2570.036,694.809a1.508,1.508,0,1,0-1.506,1.5A1.507,1.507,0,0,0,2570.036,694.809Z" transform="translate(-7.168 -12.399)" fill="#474747"/>
    <path id="Tracé_6684" data-name="Tracé 6684" d="M2555.287,749.111a1.484,1.484,0,0,0,1.542-1.482,1.5,1.5,0,1,0-3-.022A1.489,1.489,0,0,0,2555.287,749.111Z" transform="translate(-3.443 -27.318)" fill="#474747"/>
    <path id="Tracé_6685" data-name="Tracé 6685" d="M2660.94,714.416a1.509,1.509,0,0,0,0,3.018,1.509,1.509,0,1,0,0-3.018Z" transform="translate(-33.281 -18.366)" fill="#474747"/>
    <path id="Tracé_6686" data-name="Tracé 6686" d="M2555.337,759.682a1.512,1.512,0,1,0-1.5-1.53A1.506,1.506,0,0,0,2555.337,759.682Z" transform="translate(-3.443 -30.302)" fill="#474747"/>
    <path id="Tracé_6687" data-name="Tracé 6687" d="M2581.759,756.658a1.534,1.534,0,0,0-1.54,1.51,1.514,1.514,0,0,0,3.028.024A1.546,1.546,0,0,0,2581.759,756.658Z" transform="translate(-10.898 -30.301)" fill="#474747"/>
    <path id="Tracé_6688" data-name="Tracé 6688" d="M2655.856,684.268a1.513,1.513,0,1,0-1.5,1.477A1.534,1.534,0,0,0,2655.856,684.268Z" transform="translate(-31.415 -9.411)" fill="#474747"/>
    <path id="Tracé_6689" data-name="Tracé 6689" d="M2580.22,768.7a1.512,1.512,0,1,0,1.542-1.465A1.515,1.515,0,0,0,2580.22,768.7Z" transform="translate(-10.898 -33.289)" fill="#474747"/>
    <path id="Tracé_6690" data-name="Tracé 6690" d="M2619.826,768.708a1.513,1.513,0,1,0,1.532-1.476A1.52,1.52,0,0,0,2619.826,768.708Z" transform="translate(-22.089 -33.289)" fill="#474747"/>
    <path id="Tracé_6691" data-name="Tracé 6691" d="M2646.234,768.727a1.511,1.511,0,1,0,1.543-1.5A1.518,1.518,0,0,0,2646.234,768.727Z" transform="translate(-29.551 -33.289)" fill="#474747"/>
    <path id="Tracé_6692" data-name="Tracé 6692" d="M2576.646,684.239a1.517,1.517,0,1,0-3.033.012,1.517,1.517,0,0,0,3.033-.012Z" transform="translate(-9.032 -9.411)" fill="#474747"/>
    <path id="Tracé_6693" data-name="Tracé 6693" d="M2568.516,714.418a1.508,1.508,0,1,0,1.527,1.522A1.534,1.534,0,0,0,2568.516,714.418Z" transform="translate(-7.168 -18.367)" fill="#474747"/>
    <path id="Tracé_6694" data-name="Tracé 6694" d="M2647.753,749.123a1.516,1.516,0,1,0-1.521-1.5A1.547,1.547,0,0,0,2647.753,749.123Z" transform="translate(-29.55 -27.316)" fill="#474747"/>
    <path id="Tracé_6695" data-name="Tracé 6695" d="M2647.717,738.555a1.563,1.563,0,0,0,1.541-1.516,1.513,1.513,0,1,0-1.541,1.516Z" transform="translate(-29.55 -24.332)" fill="#474747"/>
    <path id="Tracé_6696" data-name="Tracé 6696" d="M2647.763,696.307a1.5,1.5,0,1,0-1.529-1.515A1.519,1.519,0,0,0,2647.763,696.307Z" transform="translate(-29.551 -12.399)" fill="#474747"/>
    <path id="Tracé_6697" data-name="Tracé 6697" d="M2568.528,706.864a1.5,1.5,0,0,0,1.507-1.558,1.511,1.511,0,1,0-1.507,1.558Z" transform="translate(-7.167 -15.384)" fill="#474747"/>
    <path id="Tracé_6698" data-name="Tracé 6698" d="M2594.934,759.679a1.5,1.5,0,0,0,1.5-1.463,1.5,1.5,0,1,0-1.5,1.463Z" transform="translate(-14.632 -30.302)" fill="#474747"/>
    <path id="Tracé_6699" data-name="Tracé 6699" d="M2647.754,756.658a1.543,1.543,0,0,0-1.523,1.527,1.509,1.509,0,0,0,1.484,1.482,1.505,1.505,0,1,0,.039-3.01Z" transform="translate(-29.55 -30.302)" fill="#474747"/>
    <path id="Tracé_6700" data-name="Tracé 6700" d="M2660.969,693.3a1.5,1.5,0,1,0,1.491,1.517A1.51,1.51,0,0,0,2660.969,693.3Z" transform="translate(-33.283 -12.399)" fill="#474747"/>
    <path id="Tracé_6701" data-name="Tracé 6701" d="M2647.744,706.864a1.5,1.5,0,1,0-1.513-1.493A1.517,1.517,0,0,0,2647.744,706.864Z" transform="translate(-29.55 -15.384)" fill="#474747"/>
    <path id="Tracé_6702" data-name="Tracé 6702" d="M2616.254,684.213a1.517,1.517,0,1,0-1.529,1.532A1.57,1.57,0,0,0,2616.254,684.213Z" transform="translate(-20.223 -9.411)" fill="#474747"/>
    <path id="Tracé_6703" data-name="Tracé 6703" d="M2589.845,684.255a1.507,1.507,0,1,0-3.014-.019,1.507,1.507,0,0,0,3.014.019Z" transform="translate(-12.766 -9.411)" fill="#474747"/>
    <path id="Tracé_6704" data-name="Tracé 6704" d="M2563.436,684.232a1.508,1.508,0,1,0-3.016.027,1.508,1.508,0,0,0,3.016-.027Z" transform="translate(-5.304 -9.411)" fill="#474747"/>
    <path id="Tracé_6705" data-name="Tracé 6705" d="M2555.289,714.427a1.482,1.482,0,0,0-1.456,1.466,1.5,1.5,0,1,0,3,.05A1.479,1.479,0,0,0,2555.289,714.427Z" transform="translate(-3.443 -18.369)" fill="#474747"/>
    <path id="Tracé_6706" data-name="Tracé 6706" d="M2603.043,684.224a1.506,1.506,0,1,0-1.486,1.521A1.523,1.523,0,0,0,2603.043,684.224Z" transform="translate(-16.496 -9.411)" fill="#474747"/>
    <path id="Tracé_6707" data-name="Tracé 6707" d="M2642.652,684.227a1.505,1.505,0,0,0-3.01,0,1.505,1.505,0,1,0,3.01,0Z" transform="translate(-27.688 -9.411)" fill="#474747"/>
    <path id="Tracé_6708" data-name="Tracé 6708" d="M2555.333,693.3a1.5,1.5,0,0,0-.024,3,1.5,1.5,0,1,0,.024-3Z" transform="translate(-3.441 -12.399)" fill="#474747"/>
    <path id="Tracé_6709" data-name="Tracé 6709" d="M2594.925,770.272a1.568,1.568,0,0,0,1.5-1.555,1.487,1.487,0,0,0-1.506-1.484,1.546,1.546,0,0,0-1.526,1.491A1.632,1.632,0,0,0,2594.925,770.272Z" transform="translate(-14.621 -33.289)" fill="#474747"/>
    <path id="Tracé_6710" data-name="Tracé 6710" d="M2634.553,767.232a1.5,1.5,0,1,0,1.494,1.5A1.491,1.491,0,0,0,2634.553,767.232Z" transform="translate(-25.823 -33.289)" fill="#474747"/>
    <path id="Tracé_6711" data-name="Tracé 6711" d="M2555.313,770.235a1.5,1.5,0,1,0-1.479-1.511A1.481,1.481,0,0,0,2555.313,770.235Z" transform="translate(-3.443 -33.289)" fill="#474747"/>
    <path id="Tracé_6712" data-name="Tracé 6712" d="M2556.828,705.382a1.5,1.5,0,1,0-1.5,1.483A1.481,1.481,0,0,0,2556.828,705.382Z" transform="translate(-3.443 -15.385)" fill="#474747"/>
  </g>
</svg>
