<svg xmlns="http://www.w3.org/2000/svg" width="750.575" height="641.392" viewBox="0 0 750.575 641.392">
  <g id="Groupe_688" data-name="Groupe 688" transform="translate(-655.687 -247.54)">
    <path id="Tracé_6604" data-name="Tracé 6604" d="M656.687,389.17l4.708,273.439S714.931,760.5,765.76,788.743c42.709,7.058,253.791,28.945,253.791,28.945s80.831-50.477,99.541-98.483c1.763-54.71,0-277.793,0-277.793s-112.6-112.247-127.074-118.954C966.6,319.986,741.4,294.57,741.4,294.57S656.687,337.281,656.687,389.17Z" transform="translate(0 70.214)" fill="none" stroke="#dcdcdc" stroke-miterlimit="10" stroke-width="2"/>
    <path id="Tracé_6605" data-name="Tracé 6605" d="M733.086,299.314s-71.653,40.946-71.653,85.068S663.2,653,663.2,653s58.6,96.718,99.189,118.6C813.213,776.543,1007,799.133,1007,799.133s87.241-56.824,96.364-94.6c-.706-42.709,0-267.912,0-267.912L981.23,326.5Z" transform="translate(7.258 77.471)" fill="none" stroke="#dcdcdc" stroke-miterlimit="10" stroke-width="2"/>
    <path id="Tracé_6606" data-name="Tracé 6606" d="M690.176,364.784,948.2,249.008s51.535-6,82.948,32.474c44.123,4.589,97.069,12.355,97.069,12.355l51.183-18.707s48-4.589,70.242,18.707,65.655,77.3,65.655,77.3,30.356,72.008,35.651,101.3,6.352,119.308-18.71,164.136-28.239,48.006-28.239,48.006l-36.709,18s-30.356,56.829-48.711,67.065S968.323,887.9,968.323,887.9" transform="translate(51.228 0)" fill="none" stroke="#dcdcdc" stroke-miterlimit="10" stroke-width="2"/>
    <path id="Tracé_6607" data-name="Tracé 6607" d="M885.371,249.473l-128.05,53.134s-9.178,4.943-6.587,9.648,35.062,6.119,35.062,6.119l141.427,15.295s24.237,1.414,36.711-6.117,72.36-34.945,72.36-34.945" transform="translate(143.157 1.23)" fill="none" stroke="#dcdcdc" stroke-miterlimit="10" stroke-width="2"/>
    <path id="Tracé_6608" data-name="Tracé 6608" d="M833.672,253.244l18.949,23.123L769.044,313.9" transform="translate(171.872 6.998)" fill="none" stroke="#dcdcdc" stroke-miterlimit="10" stroke-width="2"/>
    <line id="Ligne_31" data-name="Ligne 31" x2="144.01" y2="15.519" transform="translate(1024.493 283.365)" fill="none" stroke="#dcdcdc" stroke-miterlimit="10" stroke-width="2"/>
    <path id="Tracé_6609" data-name="Tracé 6609" d="M789.245,374.737l244.616-109.308s24.834-7.87,38.95-3.934" transform="translate(202.773 17.935)" fill="none" stroke="#dcdcdc" stroke-miterlimit="10" stroke-width="2"/>
    <path id="Tracé_6610" data-name="Tracé 6610" d="M1021.973,271.762s-26.708-13.3-45.534-6.941-137.426,58.593-137.426,58.593,30.356,27.533,46.827,52.478,35.77,59.063,35.77,59.063L1070.33,370.6s20.546-15.178,12.158-27.887" transform="translate(278.902 22.075)" fill="none" stroke="#dcdcdc" stroke-miterlimit="10" stroke-width="2"/>
    <line id="Ligne_32" data-name="Ligne 32" y1="31.914" x2="70.934" transform="translate(1113.544 474.2)" fill="none" stroke="#dcdcdc" stroke-miterlimit="10" stroke-width="2"/>
    <line id="Ligne_33" data-name="Ligne 33" x1="67.066" y2="29.415" transform="translate(1119.091 482.21)" fill="none" stroke="#dcdcdc" stroke-miterlimit="10" stroke-width="2"/>
    <line id="Ligne_34" data-name="Ligne 34" y1="73.31" x2="162.886" transform="translate(1162.717 321.674)" fill="none" stroke="#dcdcdc" stroke-miterlimit="10" stroke-width="2"/>
    <line id="Ligne_35" data-name="Ligne 35" y1="78.175" x2="166.207" transform="translate(1185.093 352.433)" fill="none" stroke="#dcdcdc" stroke-miterlimit="10" stroke-width="2"/>
    <path id="Tracé_6611" data-name="Tracé 6611" d="M865.989,380.261l153.547-67.477s37.485-8.082,53.422,30.728" transform="translate(320.167 97.007)" fill="none" stroke="#dcdcdc" stroke-miterlimit="10" stroke-width="2"/>
    <path id="Tracé_6612" data-name="Tracé 6612" d="M726.6,278.229l248.534,28.985c56.162,34.593,104.089,124.835,104.089,124.835v23.063s102.364-46.594,136.722-62.833,45.886-4.705,56.946,11.3,17.179,57.887,12.944,115.071-48.947,99.776-48.947,99.776l-156.016,67.065s4.235,12.707-7.766,40.475-72.362,75.552-72.362,75.552" transform="translate(106.937 45.218)" fill="none" stroke="#dcdcdc" stroke-miterlimit="10" stroke-width="2"/>
    <path id="Tracé_6613" data-name="Tracé 6613" d="M757.412,301.3l-26.4,16.868V342.4s-.471,17.179-12,17.885-27.766-1.412-27.766-1.412l-15.768,22.59,1.647,258.851,17.885,28.709,21.436,2.352s19.274,4,19.274,24.475-.47,23.3-.47,23.3L760.9,740.328l236.025,24.237,21.179-12.706,1.412-31.533s1.882-11.295,21.414-11.295h19.532l14.118-22.355-3.792-263.085" transform="translate(28.744 80.506)" fill="none" stroke="#dcdcdc" stroke-miterlimit="10" stroke-width="2"/>
    <path id="Tracé_6614" data-name="Tracé 6614" d="M721.414,302.806v31.937s2.231,16.931-26.306,20.731" transform="translate(58.772 82.813)" fill="none" stroke="#dcdcdc" stroke-miterlimit="10" stroke-width="2"/>
    <line id="Ligne_36" data-name="Ligne 36" y1="10.956" x2="20.429" transform="translate(759.758 411.953)" fill="none" stroke="#dcdcdc" stroke-miterlimit="10" stroke-width="2"/>
    <path id="Tracé_6615" data-name="Tracé 6615" d="M702.611,324.5c-.541,4.245-7.837,20.893-27.133,21.482" transform="translate(28.744 115.993)" fill="none" stroke="#dcdcdc" stroke-miterlimit="10" stroke-width="2"/>
    <path id="Tracé_6616" data-name="Tracé 6616" d="M682.846,330.065l3.187,259.66,16.238,27.354,20.118,2.12s21,2.295,21,25.062v22.767l24.181,20.119,232.762,24.606" transform="translate(40.015 124.511)" fill="none" stroke="#dcdcdc" stroke-miterlimit="10" stroke-width="2"/>
    <path id="Tracé_6617" data-name="Tracé 6617" d="M1009.127,790.976,766.8,763.858s-78.891-67.3-96.54-115.306c0-44.477-3.058-272.131-3.058-272.131s26.521-47.055,67.383-76.66" transform="translate(16.08 78.155)" fill="none" stroke="#dcdcdc" stroke-miterlimit="10" stroke-width="2"/>
    <line id="Ligne_37" data-name="Ligne 37" y1="7.279" x2="14.59" transform="translate(668.689 454.575)" fill="none" stroke="#dcdcdc" stroke-miterlimit="10" stroke-width="2"/>
    <line id="Ligne_38" data-name="Ligne 38" y1="4.236" x2="15.884" transform="translate(670.454 726.236)" fill="none" stroke="#dcdcdc" stroke-miterlimit="10" stroke-width="2"/>
    <line id="Ligne_39" data-name="Ligne 39" y1="6.589" x2="20.179" transform="translate(705.87 714.235)" fill="none" stroke="#dcdcdc" stroke-miterlimit="10" stroke-width="2"/>
    <line id="Ligne_40" data-name="Ligne 40" y1="7.942" x2="18.531" transform="translate(723.754 741.591)" fill="none" stroke="#dcdcdc" stroke-miterlimit="10" stroke-width="2"/>
    <line id="Ligne_41" data-name="Ligne 41" y1="8.119" x2="19.414" transform="translate(763.994 791.537)" fill="none" stroke="#dcdcdc" stroke-miterlimit="10" stroke-width="2"/>
    <line id="Ligne_42" data-name="Ligne 42" y1="9.177" x2="17.943" transform="translate(789.644 811.657)" fill="none" stroke="#dcdcdc" stroke-miterlimit="10" stroke-width="2"/>
    <line id="Ligne_43" data-name="Ligne 43" y1="7.06" x2="13.237" transform="translate(769.642 842.013)" fill="none" stroke="#dcdcdc" stroke-miterlimit="10" stroke-width="2"/>
    <line id="Ligne_44" data-name="Ligne 44" y1="29.349" x2="67.187" transform="translate(1119.292 752.478)" fill="none" stroke="#dcdcdc" stroke-miterlimit="10" stroke-width="2"/>
    <line id="Ligne_45" data-name="Ligne 45" x1="64.922" y2="28.818" transform="translate(1119.875 758.483)" fill="none" stroke="#dcdcdc" stroke-miterlimit="10" stroke-width="2"/>
    <path id="Tracé_6618" data-name="Tracé 6618" d="M844.859,560.524c23.979-20.7,57.867-49.218,68.63-76.523,26.65-15.479,117.19-55.9,117.19-55.9" transform="translate(287.845 274.482)" fill="none" stroke="#dcdcdc" stroke-miterlimit="10" stroke-width="2"/>
    <path id="Tracé_6619" data-name="Tracé 6619" d="M865.826,511.173l164.665-75.648s16.8-14.212,24.166-27.27" transform="translate(319.918 244.117)" fill="none" stroke="#dcdcdc" stroke-miterlimit="10" stroke-width="2"/>
    <ellipse id="Ellipse_165" data-name="Ellipse 165" cx="7.06" cy="13.884" rx="7.06" ry="13.884" transform="translate(1209.689 589.759)" fill="none" stroke="#dcdcdc" stroke-miterlimit="10" stroke-width="2"/>
    <ellipse id="Ellipse_166" data-name="Ellipse 166" cx="7.06" cy="13.884" rx="7.06" ry="13.884" transform="translate(1333.269 533.021)" fill="none" stroke="#dcdcdc" stroke-miterlimit="10" stroke-width="2"/>
    <path id="Tracé_6620" data-name="Tracé 6620" d="M773.078,358.255c-21.414,6.352-53.417,33.415-53.652,81.185s22.12,81.421,53.652,99.776,79.3,14.354,100.247-12.709,24.472-52.241,21.884-79.066-25.648-60.948-48.947-77.186A84.074,84.074,0,0,0,773.078,358.255Z" transform="translate(95.969 162.123)" fill="none" stroke="#dcdcdc" stroke-miterlimit="10" stroke-width="2"/>
    <path id="Tracé_6621" data-name="Tracé 6621" d="M828.974,546.318c22.9-11.728,61.492-31.73,61.492-82.324s-36.943-87.54-50.594-98.6-53.741-25.636-103.348,2.009" transform="translate(122.126 157.336)" fill="none" stroke="#dcdcdc" stroke-miterlimit="10" stroke-width="2"/>
    <path id="Tracé_6622" data-name="Tracé 6622" d="M776.068,360.867c-28.034,6.6-43.769,27.06-52.005,63.536s19.532,73.89,24.472,81.656,34.358,30.048,64.479,29.142,58.357-25.143,65.182-49.144,4.705-57.419-10.589-83.067-41.887-38.593-53.652-42.122S784.07,358.985,776.068,360.867Z" transform="translate(100.745 168.454)" fill="none" stroke="#dcdcdc" stroke-miterlimit="10" stroke-width="2"/>
    <path id="Tracé_6623" data-name="Tracé 6623" d="M761.752,359.255s-19.147,16.572-25.031,45.211,4.235,61.35,21.649,83.47,41.95,33.192,76.159,31.186" transform="translate(119.855 169.163)" fill="none" stroke="#dcdcdc" stroke-miterlimit="10" stroke-width="2"/>
  </g>
</svg>
