<svg width="45px" height="39px" viewBox="0 0 45 39" version="1.1" xmlns="http://www.w3.org/2000/svg" xmlns:xlink="http://www.w3.org/1999/xlink">
    <g  stroke="none" stroke-width="1" fill="none" fill-rule="evenodd">
        <g transform="translate(-155.000000, -684.000000)" fill="#124138" fill-rule="nonzero">
            <g transform="translate(75.000000, 598.000000)">
                <g id="Group" transform="translate(102.500000, 105.500000) scale(-1, 1) translate(-102.500000, -105.500000) translate(80.000000, 86.000000)">
                    <path d="M19.0625,19.2483871 L1.5625,19.2483871 C1.1875,19.2483871 0.9375,18.9967742 0.9375,18.6193548 L0.9375,1.00645161 C0.9375,0.629032258 1.1875,0.377419355 1.5625,0.377419355 L19.0625,0.377419355 C19.4375,0.377419355 19.6875,0.629032258 19.6875,1.00645161 L19.6875,18.6193548 C19.6875,18.933871 19.4375,19.2483871 19.0625,19.2483871 Z M2.1875,17.9903226 L18.4375,17.9903226 L18.4375,1.63548387 L2.1875,1.63548387 L2.1875,17.9903226 Z" id="Shape"></path>
                    <path d="M0.9375,38.6225806 C0.5625,38.6225806 0.3125,38.3709677 0.3125,37.9935484 C0.3125,37.616129 0.5625,37.3645161 0.9375,37.3645161 C9.75,37.3645161 18.4375,27.9919355 18.4375,18.4935484 C18.4375,18.116129 18.6875,17.8645161 19.0625,17.8645161 C19.4375,17.8645161 19.6875,18.116129 19.6875,18.4935484 C19.6875,28.8725806 10.5625,38.6225806 0.9375,38.6225806 Z" ></path>
                    <path d="M44.0625,19.2483871 L26.5625,19.2483871 C26.1875,19.2483871 25.9375,18.9967742 25.9375,18.6193548 L25.9375,1.00645161 C25.9375,0.629032258 26.1875,0.377419355 26.5625,0.377419355 L44.0625,0.377419355 C44.4375,0.377419355 44.6875,0.629032258 44.6875,1.00645161 L44.6875,18.6193548 C44.6875,18.933871 44.4375,19.2483871 44.0625,19.2483871 Z M27.1875,17.9903226 L43.4375,17.9903226 L43.4375,1.63548387 L27.1875,1.63548387 L27.1875,17.9903226 Z" ></path>
                    <path d="M25.9375,38.6225806 C25.5625,38.6225806 25.3125,38.3709677 25.3125,37.9935484 C25.3125,37.616129 25.5625,37.3645161 25.9375,37.3645161 C34.9375,37.3645161 43.4375,28.1806452 43.4375,18.4935484 C43.4375,18.116129 43.6875,17.8645161 44.0625,17.8645161 C44.4375,17.8645161 44.6875,18.116129 44.6875,18.4935484 C44.6875,29.0612903 35.75,38.6225806 25.9375,38.6225806 Z"></path>
                </g>
            </g>
        </g>
    </g>
</svg>