<svg  xmlns="http://www.w3.org/2000/svg" width="17.217" height="23.561" viewBox="0 0 17.217 23.561">
  <g >
    <path  d="M226.73,323.325c0-1.333-.006-2.666,0-4a1.1,1.1,0,0,0-.24-.729,8.6,8.6,0,1,1,15.275-6.613,8.366,8.366,0,0,1-1.736,6.626,1.047,1.047,0,0,0-.229.69c.006,2.681,0,5.362,0,8.042a.786.786,0,0,1-.395.823.806.806,0,0,1-.866-.152c-1.693-1.22-3.4-2.425-5.082-3.654a.468.468,0,0,0-.677,0c-1.56,1.2-3.137,2.38-4.7,3.575a.869.869,0,0,1-.973.215c-.363-.179-.387-.515-.385-.873.008-1.318,0-2.636,0-3.955Zm-.63-10.014a7.171,7.171,0,1,0,14.342-.041,7.171,7.171,0,1,0-14.342.041Zm2.078,12.746c.193-.14.346-.247.495-.36,1.275-.965,2.546-1.934,3.824-2.9.52-.391.7-.388,1.228-.011,1.359.974,2.716,1.952,4.077,2.923a1.7,1.7,0,0,0,.541.333v-5.738a8.767,8.767,0,0,1-10.164-.016Z" transform="translate(-224.66 -304.674)" fill="#414141"/>
    <path  d="M286.41,373.31a.9.9,0,0,1-.576-.269c-.653-.6-1.312-1.2-1.958-1.807a.716.716,0,0,1-.1-1.059.7.7,0,0,1,1.06.013c.4.351.8.708,1.176,1.083.21.208.312.162.463-.065.79-1.18,1.594-2.35,2.4-3.522a1.082,1.082,0,0,1,.42-.446.679.679,0,0,1,.849.153.709.709,0,0,1,.026.939q-1.059,1.561-2.126,3.116c-.334.488-.674.973-1,1.466A.831.831,0,0,1,286.41,373.31Z" transform="translate(-278.345 -361.602)" fill="#414141"/>
  </g>
</svg>
