<svg xmlns="http://www.w3.org/2000/svg" width="24" height="24" viewBox="0 0 24 24">
  <g transform="translate(0 0.066)">
    <g  transform="translate(0 -0.066)">
      <rect  width="24" height="24" fill="none"/>
    </g>
    <g  transform="translate(2.75 4.416)">
      <path d="M13.717,16.563A5.863,5.863,0,0,1,8.526,13.5h5.192l.9-1.75H7.931a5.345,5.345,0,0,1,0-1.75h5.786l.9-1.75H8.526a5.874,5.874,0,0,1,5.192-3.063A5.936,5.936,0,0,1,17.53,6.561l1.6-1.549A8.209,8.209,0,0,0,13.717,3,8.1,8.1,0,0,0,6.074,8.25H2.9L2,10H5.659a7.106,7.106,0,0,0,0,1.75H2.9L2,13.5H6.074a8.1,8.1,0,0,0,7.643,5.25,8.192,8.192,0,0,0,5.408-2.013l-1.6-1.549A5.876,5.876,0,0,1,13.717,16.563Z" transform="translate(-2 -3)" fill="#414141"/>
    </g>
  </g>
</svg>
