<svg xmlns="http://www.w3.org/2000/svg" width="24" height="24" viewBox="0 0 24 24">
  <g >
    <path d="M0,0H24V24H0Z" fill="none"/>
  </g>
  <g id="Outline">
    <g >
      <circle cx="1.5" cy="1.5" r="1.5" transform="translate(7 13)" fill="#414141"/>
      <circle cx="1.5" cy="1.5" r="1.5" transform="translate(14 13)" fill="#414141"/>
      <path  d="M12,2C8,2,4,2.5,4,6v9.5A3.5,3.5,0,0,0,7.5,19L6,20.5V21H8l2-2h4l2,2h2v-.5L16.5,19A3.5,3.5,0,0,0,20,15.5V6C20,2.5,16,2,12,2Zm0,2c3.51,0,4.96.48,5.57,1H6.43C7.04,4.48,8.49,4,12,4ZM6,7h5v3H6Zm12,8.5A1.5,1.5,0,0,1,16.5,17h-9A1.5,1.5,0,0,1,6,15.5V12H18ZM18,10H13V7h5Z" fill="#414141"/>
    </g>
  </g>
</svg>
