<svg  xmlns="http://www.w3.org/2000/svg" width="24" height="29.718" viewBox="0 0 24 29.718">
  <g >
    <path d="M0,0H24V29.718H0Z" fill="none"/>
  </g>
  <g transform="translate(3.332 2.477)">
    <g >
      <path d="M13.668,2A8.661,8.661,0,0,0,5,10.668c0,6.5,8.668,16.1,8.668,16.1s8.668-9.6,8.668-16.1A8.661,8.661,0,0,0,13.668,2ZM7.477,10.668a6.191,6.191,0,0,1,12.383,0c0,3.566-3.566,8.9-6.191,12.234C11.092,19.6,7.477,14.2,7.477,10.668Z" transform="translate(-5 -2)" fill="#474747"/>
      <circle cx="3.096" cy="3.096" r="3.096" transform="translate(5.572 5.572)" fill="#474747"/>
    </g>
  </g>
</svg>
