<svg xmlns="http://www.w3.org/2000/svg" width="159.871" height="44.089" viewBox="0 0 159.871 44.089">
  <g transform="translate(-207.924 -239.014)">
    <g  transform="translate(259.649 267.523)">
      <path  d="M352.158,320.715h-1.133l-1.59-2.24h-2.966v2.24h-.974v-5.877h4.635a2.029,2.029,0,0,1,1.453.5,1.772,1.772,0,0,1,.528,1.352,1.674,1.674,0,0,1-.43,1.2,1.862,1.862,0,0,1-1.1.536Zm-2.175-3.117q1.128,0,1.128-.909,0-.975-1.217-.975h-3.425V317.6Z" transform="translate(-345.494 -314.838)"/>
      <path  d="M373,319.392a2.374,2.374,0,0,1-1.047,2,4.133,4.133,0,0,1-4.472,0,2.407,2.407,0,0,1,.008-3.977,4.02,4.02,0,0,1,4.456,0A2.355,2.355,0,0,1,373,319.392Zm-1.015,0a1.554,1.554,0,0,0-.634-1.273,2.929,2.929,0,0,0-3.281,0,1.611,1.611,0,0,0-.012,2.559,2.608,2.608,0,0,0,1.659.492,2.577,2.577,0,0,0,1.647-.492A1.566,1.566,0,0,0,371.986,319.388Z" transform="translate(-358.561 -316.024)"/>
      <path  d="M393.176,319.6a1.312,1.312,0,0,1,.8,1.234q0,1.347-1.956,1.348h-4.058v-4.992h4.107a1.884,1.884,0,0,1,1.25.382,1.249,1.249,0,0,1,.455,1.007A1.179,1.179,0,0,1,393.176,319.6Zm-1.1-.382a.84.84,0,0,0,.54-.159.522.522,0,0,0,.2-.429q0-.564-.706-.564h-3.182v1.152Zm-.065,2.086a1.382,1.382,0,0,0,.719-.156.474.474,0,0,0,.255-.42q0-.633-.893-.634h-3.165v1.21Z" transform="translate(-371.991 -316.306)"/>
      <path  d="M413.823,319.392a2.374,2.374,0,0,1-1.047,2,4.133,4.133,0,0,1-4.472,0,2.407,2.407,0,0,1,.008-3.977,4.022,4.022,0,0,1,4.457,0A2.355,2.355,0,0,1,413.823,319.392Zm-1.014,0a1.555,1.555,0,0,0-.634-1.273,2.93,2.93,0,0,0-3.281,0,1.61,1.61,0,0,0-.012,2.559,2.608,2.608,0,0,0,1.658.492,2.577,2.577,0,0,0,1.647-.492A1.566,1.566,0,0,0,412.808,319.388Z" transform="translate(-384.034 -316.024)"/>
      <path  d="M432.8,318.068h-2.386v4.115h-.974v-4.115h-2.386v-.877H432.8Z" transform="translate(-396.387 -316.306)"/>
      <path  d="M446.441,322.183h-.974v-4.992h.974Z" transform="translate(-407.878 -316.306)"/>
      <path  d="M458.39,318.123l-.893.308a2.776,2.776,0,0,0-2.037-.8,2.7,2.7,0,0,0-1.7.49,1.606,1.606,0,0,0,0,2.555,2.746,2.746,0,0,0,1.713.486,2.713,2.713,0,0,0,2.038-.812l.836.446a4.124,4.124,0,0,1-5.312.5,2.4,2.4,0,0,1,.126-3.876,4.012,4.012,0,0,1,5.228.7Z" transform="translate(-412.026 -316.037)"/>
      <path  d="M476.466,318.209a4.487,4.487,0,0,0-2.118-.512q-1.664,0-1.664.593,0,.349.625.454.852.073,1.7.155a4.389,4.389,0,0,1,1.745.438,1.159,1.159,0,0,1,.576,1.063,1.38,1.38,0,0,1-.718,1.242,4.037,4.037,0,0,1-2.082.438,4.957,4.957,0,0,1-3.076-.876l.528-.69a4.3,4.3,0,0,0,2.533.723,3.176,3.176,0,0,0,1.307-.215q.463-.215.463-.572,0-.4-.568-.56a4.764,4.764,0,0,0-.982-.122q-1.039-.049-1.274-.073a2.892,2.892,0,0,1-1.364-.4,1.033,1.033,0,0,1-.438-.9,1.271,1.271,0,0,1,.7-1.132,3.861,3.861,0,0,1,1.968-.418,4.682,4.682,0,0,1,2.735.731Z" transform="translate(-424.096 -316.09)"/>
    </g>
    <g  transform="translate(259.649 249.196)">
      <path  d="M359.434,266.093q.445,0,.445.426v1.839q0,.425-.445.426h-8.461a5.171,5.171,0,0,0-1.249.126,1.687,1.687,0,0,0-.794.426,1.627,1.627,0,0,0-.416.813,5.851,5.851,0,0,0-.116,1.268v.193h10.938a.377.377,0,0,1,.426.426v1.529a.376.376,0,0,1-.426.426H348.4v.329a5.849,5.849,0,0,0,.116,1.268,1.623,1.623,0,0,0,.416.813,1.685,1.685,0,0,0,.794.426,5.173,5.173,0,0,0,1.249.126h8.461q.445,0,.445.426v1.839q0,.426-.445.426h-8.518a9.906,9.906,0,0,1-2.5-.271,3.814,3.814,0,0,1-1.675-.881,3.558,3.558,0,0,1-.949-1.587,8.155,8.155,0,0,1-.3-2.371V271.2a8.063,8.063,0,0,1,.3-2.362,3.565,3.565,0,0,1,.949-1.578,3.9,3.9,0,0,1,1.675-.891,9.6,9.6,0,0,1,2.5-.281Z" transform="translate(-345.494 -266.093)"/>
      <path  d="M407.049,266.093q.271,0,.3.184a.351.351,0,0,1-.106.319l-5.944,6.022,6.215,6.524a.352.352,0,0,1,.106.32q-.029.183-.3.183h-2.652a.954.954,0,0,1-.368-.058.636.636,0,0,1-.252-.213l-4.782-5.015-4.8,5.015a.822.822,0,0,1-.261.213.943.943,0,0,1-.377.058H391.31q-.252,0-.281-.183a.353.353,0,0,1,.106-.32l6.37-6.622-5.75-5.924a.4.4,0,0,1-.1-.319q.019-.184.29-.184H394.6a.709.709,0,0,1,.62.271l4.221,4.491,4.472-4.491a.81.81,0,0,1,.252-.2.83.83,0,0,1,.368-.068Z" transform="translate(-373.905 -266.093)"/>
      <path  d="M456.789,266.093q.271,0,.3.184a.351.351,0,0,1-.106.319l-5.944,6.022,6.215,6.524a.354.354,0,0,1,.106.32q-.029.183-.3.183h-2.652a.954.954,0,0,1-.368-.058.636.636,0,0,1-.252-.213l-4.782-5.015-4.8,5.015a.827.827,0,0,1-.262.213.941.941,0,0,1-.377.058h-2.517c-.168,0-.261-.061-.281-.183a.352.352,0,0,1,.106-.32l6.37-6.622-5.75-5.924a.4.4,0,0,1-.1-.319q.019-.184.291-.184h2.652a.834.834,0,0,1,.368.068.825.825,0,0,1,.252.2l4.22,4.491,4.473-4.491a.815.815,0,0,1,.252-.2.829.829,0,0,1,.368-.068Z" transform="translate(-404.943 -266.093)"/>
      <path  d="M499.961,266.093a2.385,2.385,0,0,1,1.239.3,3.063,3.063,0,0,1,.987,1.172L508.6,279.2a.4.4,0,0,1,.049.32c-.033.084-.126.126-.281.126H505.9a.443.443,0,0,1-.445-.252l-1.375-2.5h-9.1l-1.336,2.5a.466.466,0,0,1-.445.252h-2.517q-.252,0-.3-.126a.4.4,0,0,1,.049-.32l6.35-11.636a3.278,3.278,0,0,1,.949-1.172,1.956,1.956,0,0,1,1.084-.3Zm-3.756,8.557h6.66l-3.078-5.672a.237.237,0,0,0-.213-.136h-.116a.237.237,0,0,0-.213.136Z" transform="translate(-435.899 -266.093)"/>
      <path  d="M558.76,266.093a.377.377,0,0,1,.426.426v1.9q0,.445-.426.445h-8.615a5.169,5.169,0,0,0-1.249.126,1.618,1.618,0,0,0-.784.426,1.731,1.731,0,0,0-.416.8,5.379,5.379,0,0,0-.126,1.278v2.749a5.5,5.5,0,0,0,.126,1.287,1.734,1.734,0,0,0,.416.813,1.615,1.615,0,0,0,.784.426,5.154,5.154,0,0,0,1.249.126h8.615a.377.377,0,0,1,.426.426v1.9a.376.376,0,0,1-.426.426h-8.731a9.9,9.9,0,0,1-2.5-.271,3.813,3.813,0,0,1-1.674-.881,3.554,3.554,0,0,1-.949-1.587,8.143,8.143,0,0,1-.3-2.371V271.2a8.051,8.051,0,0,1,.3-2.362,3.561,3.561,0,0,1,.949-1.578,3.9,3.9,0,0,1,1.674-.891,9.6,9.6,0,0,1,2.5-.281Z" transform="translate(-469.743 -266.093)"/>
      <path  d="M606.1,266.093q.445,0,.445.426v1.9a.393.393,0,0,1-.445.445h-6.079V279.22a.376.376,0,0,1-.426.426h-2.11a.376.376,0,0,1-.426-.426V268.862h-6.079a.393.393,0,0,1-.445-.445v-1.9q0-.426.445-.426Z" transform="translate(-498.403 -266.093)"/>
    </g>
    <path  d="M241.85,239.014h.034a22.043,22.043,0,0,1,21.943,20.339q.065.862.065,1.736v.017a1.669,1.669,0,0,1-1.676,1.653H246.765l5.025,8.7h-3.932l-5.025-8.7-.982-1.7.984-1.7,2.96-4.949h3.931l-2.96,4.949h11.708a1.682,1.682,0,0,0,1.64-2.027,18.649,18.649,0,0,0-18.237-14.907h-.029c-4.466,0-11.513,1.561-14.878,4.426C226.972,246.845,232.927,239.014,241.85,239.014Z" transform="translate(-11.886 0)" fill="#009ec0"/>
    <path  d="M229.967,302.428h-.034a22.043,22.043,0,0,1-21.943-20.339q-.065-.862-.065-1.736v-.017a1.669,1.669,0,0,1,1.676-1.652h15.452l-5.025-8.7h3.932l5.025,8.7.982,1.7-.984,1.705-2.772,4.855h-3.932l2.772-4.855H213.341a1.682,1.682,0,0,0-1.64,2.027,18.65,18.65,0,0,0,18.237,14.907h.029c4.466,0,11.514-1.562,14.878-4.426C244.845,294.6,238.89,302.428,229.967,302.428Z" transform="translate(0 -19.325)" fill="#ff5d06"/>
  </g>
</svg>
