<svg width="14px" height="20px" viewBox="0 0 14 20" version="1.1" xmlns="http://www.w3.org/2000/svg" xmlns:xlink="http://www.w3.org/1999/xlink">
    <g stroke="none" stroke-width="1" fill="none" fill-rule="evenodd">
        <g transform="translate(-740.000000, -615.000000)" fill="#DFAD59" fill-rule="nonzero">
            <g transform="translate(737.000000, 615.000000)">
                <g  transform="translate(3.000000, 0.000000)">
                    <path d="M6.681,-6.39488462e-14 C2.997,-6.39488462e-14 4.93827201e-13,2.997 4.93827201e-13,6.681 C4.93827201e-13,10.209 6.015,19.048 6.271,19.423 C6.364,19.558 6.517,19.64 6.681,19.64 C6.845,19.64 6.999,19.559 7.091,19.423 C7.347,19.048 13.362,10.21 13.362,6.681 C13.362,2.997 10.365,-6.39488462e-14 6.681,-6.39488462e-14 Z M6.68,18.249 C4.777,15.378 0.995,9.161 0.995,6.681 C0.995,3.545 3.546,0.994 6.682,0.994 C9.818,0.994 12.369,3.545 12.369,6.681 C12.368,9.409 8.047,16.176 6.68,18.249 Z" ></path>
                    <path d="M6.681,2.486 C4.351,2.486 2.455,4.382 2.455,6.712 C2.455,9.042 4.351,10.938 6.681,10.938 C9.011,10.938 10.907,9.042 10.907,6.712 C10.907,4.382 9.011,2.486 6.681,2.486 Z M6.681,9.944 C4.899,9.944 3.449,8.494 3.449,6.712 C3.449,4.93 4.899,3.48 6.681,3.48 C8.463,3.48 9.913,4.93 9.913,6.712 C9.913,8.495 8.463,9.944 6.681,9.944 Z" ></path>
                </g>
            </g>
        </g>
    </g>
</svg>