<svg width="8px" height="16px" viewBox="0 0 8 16" version="1.1" xmlns="http://www.w3.org/2000/svg" xmlns:xlink="http://www.w3.org/1999/xlink">
    <g stroke="none" stroke-width="1" fill="none" fill-rule="evenodd">
        <g id="" transform="translate(-664.000000, -7342.000000)" >
            <g  transform="translate(574.000000, 7184.000000)">
                <g  transform="translate(62.000000, 134.000000)">
                    <g transform="translate(12.000000, 12.000000)">
                        <g  transform="translate(16.250000, 12.500000)">
                            <path fill="#385C8E" d="M0.261943359,7.98899414 L1.90617187,7.98899414 L1.90617187,14.7580664 C1.90617187,14.8917188 2.01445312,15 2.14810547,15 L4.9359668,15 C5.06961914,15 5.17790039,14.8917187 5.17790039,14.7580664 L5.17790039,8.02089844 L7.06810547,8.02089844 C7.19100586,8.02089844 7.29442383,7.92867188 7.30845703,7.8065918 L7.59553711,5.31457031 C7.60341797,5.24601563 7.58170898,5.17734375 7.53583008,5.12589844 C7.48992187,5.07442383 7.42420898,5.04495117 7.35524414,5.04495117 L5.17801758,5.04495117 L5.17801758,3.4828125 C5.17801758,3.01192383 5.43155273,2.773125 5.93170898,2.773125 C6.00298828,2.773125 7.35524414,2.773125 7.35524414,2.773125 C7.48889648,2.773125 7.59717773,2.66478516 7.59717773,2.53119141 L7.59717773,0.243720703 C7.59717773,0.110068359 7.48889648,0.00178710938 7.35524414,0.00178710938 L5.39337891,0.00178710938 C5.37955078,0.00111328125 5.34881836,0 5.30352539,0 C4.963125,0 3.77991211,0.0668261719 2.84525391,0.926660156 C1.80966797,1.87951172 1.95363281,3.02036133 1.98802734,3.21817383 L1.98802734,5.04489258 L0.261914062,5.04489258 C0.128261719,5.04489258 0.0199804687,5.15317383 0.0199804687,5.28682617 L0.0199804687,7.74703125 C0.0199804687,7.8806543 0.128291016,7.98899414 0.261943359,7.98899414 Z"></path>
                        </g>
                    </g>
                </g>
            </g>
        </g>
    </g>
</svg>