<svg width="16px" height="15px" viewBox="0 0 16 15" version="1.1" xmlns="http://www.w3.org/2000/svg" xmlns:xlink="http://www.w3.org/1999/xlink">
    <g" stroke="none" stroke-width="1" fill="none" fill-rule="evenodd">
        <g transform="translate(-764.000000, -7341.000000)" >
            <g" transform="translate(574.000000, 7184.000000)">
                <g" transform="translate(62.000000, 134.000000)">
                    <g" transform="translate(104.000000, 0.000000)">
                        <g transform="translate(12.000000, 12.000000)">
                            <g transform="translate(12.500000, 11.250000)">
                                <path fill="#007AAA" d="M1.80739766,0.0123976608 C2.78824561,0.0123976608 3.61421053,0.838362573 3.61421053,1.81921053 C3.61421053,2.85166667 2.73660819,3.65184211 1.80739766,3.62602339 C0.852368421,3.65184211 0.000584795322,2.85166667 0.000584795322,1.81921053 C-0.0252339181,0.81254386 0.800760234,0.0123976608 1.80739766,0.0123976608"></path>
                                <path fill="#007AAA" d="M2.81406433,14.7250292 L0.749122807,14.7250292 C0.465204678,14.7250292 0.232894737,14.4927193 0.232894737,14.2088012 L0.232894737,5.17473684 C0.232894737,4.89081871 0.439385965,4.65850877 0.723304094,4.65850877 L2.81403509,4.65850877 C3.09795322,4.65850877 3.33026316,4.89081871 3.33026316,5.17473684 L3.33026316,14.2346199 C3.33026316,14.4927193 3.09798246,14.7250292 2.81406433,14.7250292" id="Path"></path>
                                <path fill="#007AAA" d="M14.9455263,7.80751462 C14.9455263,5.89745614 13.5258772,4.40038012 11.6158187,4.40038012 L11.0737719,4.40038012 C10.0413158,4.40038012 9.03464912,4.89078947 8.49260234,5.69096491 C8.31192982,5.87163743 8.23447368,5.94909357 8.23447368,5.94909357 L8.23447368,4.91663743 C8.23447368,4.81339181 8.07959064,4.65850877 7.97634503,4.65850877 L5.39517544,4.65850877 C5.29192982,4.65850877 5.13704678,4.76175439 5.13704678,4.89081871 L5.13704678,14.5185673 C5.13704678,14.6218129 5.29192982,14.7250585 5.39517544,14.7250585 L8.23444444,14.7250585 C8.33769006,14.7250585 8.4925731,14.6218129 8.4925731,14.5185673 L8.4925731,8.94321637 C8.4925731,7.98818713 9.2152924,7.1880117 10.1703216,7.16222222 C10.660731,7.16222222 11.0995322,7.34289474 11.4350877,7.67845029 C11.7448246,7.98818713 11.8738889,8.4269883 11.8738889,8.91739766 L11.8738889,14.4669006 C11.8738889,14.5701462 12.0287719,14.7250585 12.1320175,14.7250585 L14.7131871,14.7250585 C14.8164327,14.7250585 14.9713158,14.5701462 14.9713158,14.4669006 L14.9713158,7.80751462 L14.9455263,7.80751462 Z" ></path>
                            </g>
                        </g>
                    </g>
                </g>
            </g>
        </g>
    </g>
</svg>