<svg id="tw-icon" 
	xmlns="http://www.w3.org/2000/svg" version="1.1" xmlns:xlink="http://www.w3.org/1999/xlink" xmlns:svgjs="http://svgjs.com/svgjs" 
	width="14" height="12" viewBox="0 0 14 12">
    <path
        d="M1188 36.35C1187.49 36.58 1186.94 36.74 1186.35 36.81C1186.9499999999998 36.45 1187.3999999999999 35.88 1187.62 35.21C1187.06 35.54 1186.4499999999998 35.78 1185.79 35.910000000000004C1185.27 35.35 1184.52 35.00000000000001 1183.7 35.00000000000001C1182.1100000000001 35.00000000000001 1180.82 36.290000000000006 1180.82 37.88000000000001C1180.82 38.11000000000001 1180.85 38.33000000000001 1180.8999999999999 38.540000000000006C1178.5099999999998 38.42000000000001 1176.3899999999999 37.27 1174.9699999999998 35.53000000000001C1174.7299999999998 35.95000000000001 1174.5899999999997 36.45000000000001 1174.5899999999997 36.98000000000001C1174.5899999999997 37.98000000000001 1175.0899999999997 38.860000000000014 1175.8599999999997 39.38000000000001C1175.3899999999996 39.37000000000001 1174.9499999999996 39.23000000000001 1174.5599999999997 39.02000000000001V39.05000000000001C1174.5599999999997 40.45000000000001 1175.5599999999997 41.62000000000001 1176.8699999999997 41.890000000000015C1176.6299999999997 41.95000000000002 1176.3699999999997 41.98000000000002 1176.1099999999997 41.98000000000002C1175.9299999999996 41.98000000000002 1175.7499999999998 41.97000000000002 1175.5699999999997 41.93000000000002C1175.9399999999996 43.08000000000002 1176.9999999999998 43.91000000000002 1178.2499999999998 43.94000000000002C1177.2699999999998 44.71000000000002 1176.0299999999997 45.170000000000016 1174.6799999999998 45.170000000000016C1174.4499999999998 45.170000000000016 1174.2299999999998 45.16000000000002 1173.9999999999998 45.13000000000002C1175.2699999999998 45.95000000000002 1176.7799999999997 46.430000000000014 1178.4099999999999 46.430000000000014C1183.6899999999998 46.430000000000014 1186.58 42.030000000000015 1186.58 38.22000000000001L1186.57 37.850000000000016C1187.1299999999999 37.44000000000002 1187.62 36.930000000000014 1188 36.350000000000016Z "
        fill="currentColor"
        fill-opacity="1"
        transform="matrix(1,0,0,1,-1174,-35)"></path>
</svg>
