<?xml version="1.0" encoding="UTF-8"?>
<svg xmlns="http://www.w3.org/2000/svg" width="78.802" height="73.763" viewBox="0 0 78.802 73.763">
  <path id="Tracé_6457" data-name="Tracé 6457" d="M-287.309,1852.422h-7.437v-8.252h5.153a2.309,2.309,0,0,0,1.9-1,2.307,2.307,0,0,0,.25-2.137l-7.462-19.305a2.31,2.31,0,0,0-2.154-1.477,2.308,2.308,0,0,0-2.153,1.477l-7.462,19.3a2.309,2.309,0,0,0,.25,2.138,2.307,2.307,0,0,0,1.9,1h5.153v8.253h-19.13v-9.076H-322.9v9.076h-4.407v-27.585h-4.407v27.585h-3.526v-17.008h-4.407v17.008h-3.525v-20.534h-4.407v20.534H-351.1v-12.6h-4.407v12.6h-5.982a2.308,2.308,0,0,0-2.309,2.308,38.957,38.957,0,0,0,11.543,27.777,39.2,39.2,0,0,0,27.858,11.5,39.2,39.2,0,0,0,27.858-11.5A38.957,38.957,0,0,0-285,1854.73,2.308,2.308,0,0,0-287.309,1852.422Zm-13.84-12.87,4.094-10.592,4.1,10.592Zm-51.533,35.37a34.258,34.258,0,0,1-6.427-17.883h19.33c0,.029,0,.058,0,.088l.063,5.13a8.41,8.41,0,0,1-4.045,7.265Zm28.281,14.47a34.617,34.617,0,0,1-24.6-10.155c-.238-.237-.471-.479-.7-.722l8.328-5.043A13.046,13.046,0,0,0-335.1,1862.2l-.063-5.13v-.032h10.235l6.256,10.684a5.765,5.765,0,0,1,.773,2.882v8.372a10.324,10.324,0,0,0,1.969,6.083l1.985,2.746A35.009,35.009,0,0,1-324.4,1889.392Zm24.6-10.155a34.835,34.835,0,0,1-9.7,6.836l-2.686-3.717a5.734,5.734,0,0,1-1.094-3.379V1870.6a10.407,10.407,0,0,0-1.4-5.2l-4.9-8.362h29.888A34.347,34.347,0,0,1-299.8,1879.237Z" transform="translate(363.802 -1820.247)" fill="#474747"/>
</svg>
