<?xml version="1.0" encoding="UTF-8"?>
<svg xmlns="http://www.w3.org/2000/svg" width="101.21" height="97.204" viewBox="0 0 101.21 97.204">
  <g id="Groupe_519" data-name="Groupe 519" transform="translate(851.139 -1808.16)">
    <g id="Groupe_514" data-name="Groupe 514">
      <path id="Tracé_6432" data-name="Tracé 6432" d="M-761.828,1826.263a6.536,6.536,0,0,1-6.537,6.537,6.537,6.537,0,0,1-6.538-6.537,6.538,6.538,0,0,1,6.538-6.538A6.537,6.537,0,0,1-761.828,1826.263Z" fill="#474747"/>
    </g>
    <g id="Groupe_515" data-name="Groupe 515">
      <path id="Tracé_6433" data-name="Tracé 6433" d="M-768.365,1852.622-781.4,1839.6a18.3,18.3,0,0,1-5.4-13.027,18.294,18.294,0,0,1,5.4-13.028,18.466,18.466,0,0,1,26.069,0,18.294,18.294,0,0,1,5.4,13.028,18.3,18.3,0,0,1-5.4,13.027Zm0-40.058a13.994,13.994,0,0,0-9.92,4.1,13.916,13.916,0,0,0-4.109,9.911,13.913,13.913,0,0,0,4.109,9.909l9.92,9.91,9.92-9.91a13.913,13.913,0,0,0,4.109-9.909,13.916,13.916,0,0,0-4.109-9.911A14,14,0,0,0-768.365,1812.564Z" fill="#474747"/>
    </g>
    <g id="Groupe_516" data-name="Groupe 516">
      <path id="Tracé_6434" data-name="Tracé 6434" d="M-769.363,1905.364h-54.055a2.2,2.2,0,0,1-2.2-2.2,2.2,2.2,0,0,1,2.2-2.2h54.055a10.632,10.632,0,0,0,10.62-10.62v-.162a10.632,10.632,0,0,0-10.62-10.62h-20.129a10.169,10.169,0,0,1-10.157-10.158,10.168,10.168,0,0,1,10.157-10.157h16.72a2.2,2.2,0,0,1,2.2,2.2,2.2,2.2,0,0,1-2.2,2.2h-16.72a5.756,5.756,0,0,0-5.75,5.75,5.757,5.757,0,0,0,5.75,5.751h20.129a15.044,15.044,0,0,1,15.027,15.027v.162A15.044,15.044,0,0,1-769.363,1905.364Z" fill="#474747"/>
    </g>
    <g id="Groupe_517" data-name="Groupe 517">
      <path id="Tracé_6435" data-name="Tracé 6435" d="M-826.166,1872.1a6.537,6.537,0,0,1-6.542,6.533,6.538,6.538,0,0,1-6.533-6.542,6.538,6.538,0,0,1,6.543-6.533A6.537,6.537,0,0,1-826.166,1872.1Z" fill="#474747"/>
    </g>
    <g id="Groupe_518" data-name="Groupe 518">
      <path id="Tracé_6436" data-name="Tracé 6436" d="M-832.723,1898.453l-13.025-13.03a18.288,18.288,0,0,1-5.391-13.031,18.3,18.3,0,0,1,5.41-13.025,18.47,18.47,0,0,1,26.07.02,18.3,18.3,0,0,1,5.392,13.032,18.3,18.3,0,0,1-5.411,13.024Zm.019-40.056a13.992,13.992,0,0,0-9.912,4.09,13.917,13.917,0,0,0-4.117,9.908,13.911,13.911,0,0,0,4.1,9.912l9.912,9.918,9.928-9.9a13.911,13.911,0,0,0,4.117-9.906,13.916,13.916,0,0,0-4.1-9.913A13.993,13.993,0,0,0-832.7,1858.4Z" fill="#474747"/>
    </g>
  </g>
</svg>
