<?xml version="1.0" encoding="UTF-8"?>
<svg xmlns="http://www.w3.org/2000/svg" width="100.756" height="100.754" viewBox="0 0 100.756 100.754">
  <g id="Groupe_568" data-name="Groupe 568" transform="translate(831.156 -1644.067)">
    <path id="Tracé_6491" data-name="Tracé 6491" d="M-817.847,1720.256a2.068,2.068,0,0,0,2.065-2.066v-55.954a3.115,3.115,0,0,1,3.053-3.1,2.051,2.051,0,0,0,1.452-.627,2.05,2.05,0,0,0,.581-1.469,2.072,2.072,0,0,0-2.064-2.032h-.032a7.256,7.256,0,0,0-7.121,7.228v8.873h-9.177a2.069,2.069,0,0,0-2.066,2.066,2.068,2.068,0,0,0,2.066,2.064h9.177v6.506h-9.177a2.068,2.068,0,0,0-2.066,2.065,2.068,2.068,0,0,0,2.066,2.065h9.177v6.505h-9.177a2.068,2.068,0,0,0-2.066,2.064,2.069,2.069,0,0,0,2.066,2.066h9.177v6.505h-9.177a2.067,2.067,0,0,0-2.066,2.064,2.069,2.069,0,0,0,2.066,2.066h9.177v6.5h-9.177a2.068,2.068,0,0,0-2.066,2.065,2.068,2.068,0,0,0,2.066,2.065h9.177v.411A2.069,2.069,0,0,0-817.847,1720.256Z" fill="#fff"/>
    <path id="Tracé_6492" data-name="Tracé 6492" d="M-755.8,1729.146h-56.881a3.092,3.092,0,0,1-2.871-1.927,2.054,2.054,0,0,0-1.113-1.123,2.063,2.063,0,0,0-1.581-.006,2.053,2.053,0,0,0-1.123,1.113,2.051,2.051,0,0,0-.005,1.58,7.2,7.2,0,0,0,6.693,4.492h8.569v9.482a2.067,2.067,0,0,0,2.066,2.064,2.067,2.067,0,0,0,2.065-2.064v-9.482h6.5v9.482a2.067,2.067,0,0,0,2.065,2.064,2.067,2.067,0,0,0,2.066-2.064v-9.482h6.5v9.482a2.066,2.066,0,0,0,2.065,2.064,2.067,2.067,0,0,0,2.066-2.064v-9.482h6.5v9.482a2.066,2.066,0,0,0,2.065,2.064,2.066,2.066,0,0,0,2.065-2.064v-9.482h6.5v9.482a2.067,2.067,0,0,0,2.066,2.064,2.067,2.067,0,0,0,2.065-2.064v-9.482h1.642a2.067,2.067,0,0,0,2.066-2.064A2.068,2.068,0,0,0-755.8,1729.146Z" fill="#fff"/>
    <path id="Tracé_6493" data-name="Tracé 6493" d="M-760.9,1719.3a5.289,5.289,0,0,0,5.283-5.283v-39.75a5.289,5.289,0,0,0-5.283-5.283h-39.748a5.289,5.289,0,0,0-5.283,5.283v39.75a5.289,5.289,0,0,0,5.283,5.283Zm-10.037-31.949a7.554,7.554,0,0,0-5.183,5.182h-9.73v-6.44a6.634,6.634,0,0,0,4.863-6.385,6.632,6.632,0,0,0-6.01-6.594h16.06Zm-21.636,14.781a2.19,2.19,0,0,1,2.188,2.188,2.166,2.166,0,0,1-1.088,1.889,2.156,2.156,0,0,1-2.17.02h0a2.192,2.192,0,0,1-1.119-1.908A2.192,2.192,0,0,1-792.577,1702.131Zm1.255,8.383a6.313,6.313,0,0,0,5.064-6.2,6.325,6.325,0,0,0-6.319-6.318,6.326,6.326,0,0,0-6.32,6.318,6.324,6.324,0,0,0,3.444,5.628v5.222h-5.2a1.154,1.154,0,0,1-1.152-1.153v-31.939h8.01a6.753,6.753,0,0,0,3.81,3.816v8.7a2.068,2.068,0,0,0,2.065,2.065h5.228v18.507h-8.631Zm3.708-33.3a2.5,2.5,0,0,1,2.492,2.491,2.5,2.5,0,0,1-2.492,2.493,2.5,2.5,0,0,1-2.493-2.493A2.5,2.5,0,0,1-787.614,1677.216Zm-6.386.731h-7.8v-3.681a1.154,1.154,0,0,1,1.152-1.153h12.427A6.642,6.642,0,0,0-794,1677.947Zm15.439,18.715h2.438a7.582,7.582,0,0,0,7.248,5.469,7.543,7.543,0,0,0,7.534-7.534,7.579,7.579,0,0,0-5.47-7.247v-14.237h5.907a1.155,1.155,0,0,1,1.153,1.153V1705.9h-18.81Zm9.686,1.339a3.409,3.409,0,0,1-3.406-3.4,3.411,3.411,0,0,1,3.406-3.406,3.409,3.409,0,0,1,3.4,3.406A3.408,3.408,0,0,1-768.875,1698Zm9.124,12.03v3.985a1.155,1.155,0,0,1-1.153,1.153h-17.657v-5.138Z" fill="#fff"/>
    <path id="Tracé_6494" data-name="Tracé 6494" d="M-732.465,1685.875a2.068,2.068,0,0,0,2.065-2.065,2.068,2.068,0,0,0-2.065-2.065h-9.178v-6.505h9.178a2.068,2.068,0,0,0,2.065-2.065,2.068,2.068,0,0,0-2.065-2.065h-9.178v-8.874a7.239,7.239,0,0,0-7.232-7.23h-8.568v-8.874a2.068,2.068,0,0,0-2.065-2.065,2.068,2.068,0,0,0-2.066,2.065v8.874h-6.5v-8.874a2.067,2.067,0,0,0-2.065-2.065,2.067,2.067,0,0,0-2.065,2.065v8.874h-6.5v-8.874a2.068,2.068,0,0,0-2.066-2.065,2.067,2.067,0,0,0-2.065,2.065v8.874h-6.5v-8.874a2.068,2.068,0,0,0-2.066-2.065,2.068,2.068,0,0,0-2.065,2.065v8.874h-6.5v-8.874a2.068,2.068,0,0,0-2.065-2.065,2.068,2.068,0,0,0-2.066,2.065v8.874h-.785a2.067,2.067,0,0,0-2.065,2.064,2.068,2.068,0,0,0,2.065,2.066h56.023a3.1,3.1,0,0,1,3.1,3.1v63.809a3.073,3.073,0,0,1-.961,2.245,2.059,2.059,0,0,0-.64,1.445,2.041,2.041,0,0,0,.57,1.475,2.05,2.05,0,0,0,1.494.64,2.072,2.072,0,0,0,1.427-.57,7.173,7.173,0,0,0,2.241-5.235v-8.266h9.178a2.068,2.068,0,0,0,2.065-2.065,2.067,2.067,0,0,0-2.065-2.065h-9.178v-6.5h9.178a2.068,2.068,0,0,0,2.065-2.066,2.067,2.067,0,0,0-2.065-2.064h-9.178v-6.505h9.178a2.068,2.068,0,0,0,2.065-2.066,2.067,2.067,0,0,0-2.065-2.064h-9.178v-6.505Z" fill="#fff"/>
  </g>
</svg>
