<?xml version="1.0" encoding="UTF-8"?>
<svg xmlns="http://www.w3.org/2000/svg" width="126.169" height="79.907" viewBox="0 0 126.169 79.907">
  <g id="Outline" transform="translate(634.052 -1814.723)">
    <g id="Groupe_520" data-name="Groupe 520">
      <path id="Tracé_6437" data-name="Tracé 6437" d="M-516.294,1814.723H-629.846a4.205,4.205,0,0,0,4.205,4.2h8.412v4.206h-10.515a2.1,2.1,0,0,0-2.1,2.1c0,5.888,6.466,10.514,14.719,10.514s14.72-4.626,14.72-10.514a2.1,2.1,0,0,0-2.1-2.1h-10.514v-4.206h39.954v4.206h-10.514a2.1,2.1,0,0,0-2.1,2.1c0,5.888,6.466,10.514,14.72,10.514s14.719-4.626,14.719-10.514a2.1,2.1,0,0,0-2.1-2.1h-10.514v-4.206h39.954v4.206h-10.514a2.1,2.1,0,0,0-2.1,2.1c0,5.888,6.466,10.514,14.72,10.514s14.719-4.626,14.719-10.514a2.1,2.1,0,0,0-2.1-2.1h-10.514v-4.206h8.411a4.205,4.205,0,0,0,4.205-4.2Zm-88.949,12.616c-1.472,2.423-5.413,4.206-9.884,4.206s-8.411-1.783-9.883-4.206Zm44.159,0c-1.472,2.423-5.413,4.206-9.883,4.206s-8.412-1.783-9.884-4.206Zm44.159,0c-1.472,2.423-5.413,4.206-9.883,4.206s-8.412-1.783-9.884-4.206Z" fill="#474747"/>
    </g>
    <g id="Groupe_521" data-name="Groupe 521">
      <path id="Tracé_6438" data-name="Tracé 6438" d="M-509.986,1890.424h-14.719v-6.369a18.948,18.948,0,0,0,11.986-4.767c5.242-5.243,4.836-13.839,4.811-14.2a2.1,2.1,0,0,0-1.985-1.985c-.358-.027-8.956-.421-14.2,4.813a14.463,14.463,0,0,0-2.712,3.893,14.455,14.455,0,0,0-2.734-3.893c-5.246-5.244-13.843-4.836-14.2-4.813a2.1,2.1,0,0,0-1.985,1.985c-.019.364-.421,8.96,4.811,14.2a18.923,18.923,0,0,0,12.007,4.768v6.369h-39.954v-6.369a18.944,18.944,0,0,0,11.986-4.767c5.243-5.243,4.837-13.839,4.812-14.2a2.1,2.1,0,0,0-1.985-1.985c-.349-.029-8.946-.429-14.182,4.807a14.458,14.458,0,0,0-2.733,3.9,14.478,14.478,0,0,0-2.734-3.893c-5.247-5.244-13.845-4.836-14.2-4.813a2.1,2.1,0,0,0-1.985,1.985c-.019.364-.431,8.96,4.812,14.2a18.923,18.923,0,0,0,12.007,4.768v6.369h-39.954v-6.369a18.944,18.944,0,0,0,11.986-4.767c5.243-5.243,4.837-13.839,4.811-14.2a2.1,2.1,0,0,0-1.985-1.985c-.351-.029-8.945-.429-14.181,4.807a14.485,14.485,0,0,0-2.734,3.9,14.438,14.438,0,0,0-2.723-3.9c-5.246-5.238-13.841-4.836-14.2-4.807a2.1,2.1,0,0,0-1.985,1.985c-.015.364-.436,8.96,4.821,14.2a18.934,18.934,0,0,0,11.987,4.767v6.369h-14.72a2.1,2.1,0,0,0-2.1,2.1,2.1,2.1,0,0,0,2.1,2.1h121.963a2.1,2.1,0,0,0,2.1-2.1A2.1,2.1,0,0,0-509.986,1890.424Zm-11.126-19.535a14.642,14.642,0,0,1,8.95-3.524,14.649,14.649,0,0,1-3.52,8.953,14.653,14.653,0,0,1-8.95,3.523A14.641,14.641,0,0,1-521.112,1870.889Zm-16.822,5.425a14.633,14.633,0,0,1-3.52-8.943,14.725,14.725,0,0,1,8.949,3.518,14.624,14.624,0,0,1,3.52,8.941,14.735,14.735,0,0,1-8.949-3.512Zm-27.337-5.425a14.64,14.64,0,0,1,8.95-3.524,14.649,14.649,0,0,1-3.52,8.953,14.655,14.655,0,0,1-8.95,3.523,14.641,14.641,0,0,1,3.52-8.952Zm-16.822,5.425a14.64,14.64,0,0,1-3.521-8.943,14.728,14.728,0,0,1,8.95,3.518,14.631,14.631,0,0,1,3.52,8.941,14.732,14.732,0,0,1-8.949-3.512Zm-27.337-5.425a14.639,14.639,0,0,1,8.949-3.524,14.643,14.643,0,0,1-3.52,8.953,14.652,14.652,0,0,1-8.949,3.523,14.635,14.635,0,0,1,3.52-8.952Zm-16.823,5.425a14.645,14.645,0,0,1-3.52-8.943,14.728,14.728,0,0,1,8.95,3.518,14.631,14.631,0,0,1,3.52,8.941,14.737,14.737,0,0,1-8.95-3.512Z" fill="#474747"/>
    </g>
    <g id="Groupe_522" data-name="Groupe 522">
      <path id="Tracé_6439" data-name="Tracé 6439" d="M-615.127,1846.265a2.1,2.1,0,0,0,2.1-2.1v-2.1a2.1,2.1,0,0,0-2.1-2.1,2.1,2.1,0,0,0-2.1,2.1v2.1A2.1,2.1,0,0,0-615.127,1846.265Z" fill="#474747"/>
    </g>
    <g id="Groupe_523" data-name="Groupe 523">
      <path id="Tracé_6440" data-name="Tracé 6440" d="M-617.229,1854.676a2.1,2.1,0,0,0,2.1,2.1,2.1,2.1,0,0,0,2.1-2.1v-2.1a2.1,2.1,0,0,0-2.1-2.1,2.1,2.1,0,0,0-2.1,2.1Z" fill="#474747"/>
    </g>
    <g id="Groupe_524" data-name="Groupe 524">
      <path id="Tracé_6441" data-name="Tracé 6441" d="M-624.476,1844.614a2.1,2.1,0,0,0,2.7-1.258v0l.719-1.976a2.1,2.1,0,0,0-1.366-2.642,2.1,2.1,0,0,0-2.583,1.206l-.719,1.974a2.1,2.1,0,0,0,1.249,2.7Z" fill="#474747"/>
    </g>
    <g id="Groupe_525" data-name="Groupe 525">
      <path id="Tracé_6442" data-name="Tracé 6442" d="M-628.61,1849.823l-.719,1.974a2.1,2.1,0,0,0,1.254,2.7,2.1,2.1,0,0,0,2.7-1.254l.719-1.977a2.1,2.1,0,0,0-1.24-2.7,2.1,2.1,0,0,0-2.7,1.24Z" fill="#474747"/>
    </g>
    <g id="Groupe_526" data-name="Groupe 526">
      <path id="Tracé_6443" data-name="Tracé 6443" d="M-605.243,1839.94a2.1,2.1,0,0,0-2.7-1.259,2.1,2.1,0,0,0-1.259,2.695h0l.719,1.976a2.1,2.1,0,0,0,2.7,1.258,2.1,2.1,0,0,0,1.258-2.7Z" fill="#474747"/>
    </g>
    <g id="Groupe_527" data-name="Groupe 527">
      <path id="Tracé_6444" data-name="Tracé 6444" d="M-605.595,1851.263l.72,1.977a2.1,2.1,0,0,0,2.7,1.254,2.1,2.1,0,0,0,1.255-2.7h0l-.719-1.974a2.1,2.1,0,0,0-2.689-1.271,2.1,2.1,0,0,0-1.271,2.688Z" fill="#474747"/>
    </g>
    <g id="Groupe_528" data-name="Groupe 528">
      <path id="Tracé_6445" data-name="Tracé 6445" d="M-570.967,1846.265a2.1,2.1,0,0,0,2.1-2.1v-2.1a2.1,2.1,0,0,0-2.1-2.1,2.1,2.1,0,0,0-2.1,2.1v2.1A2.1,2.1,0,0,0-570.967,1846.265Z" fill="#474747"/>
    </g>
    <g id="Groupe_529" data-name="Groupe 529">
      <path id="Tracé_6446" data-name="Tracé 6446" d="M-573.07,1854.676a2.1,2.1,0,0,0,2.1,2.1,2.1,2.1,0,0,0,2.1-2.1v-2.1a2.1,2.1,0,0,0-2.1-2.1,2.1,2.1,0,0,0-2.1,2.1Z" fill="#474747"/>
    </g>
    <g id="Groupe_530" data-name="Groupe 530">
      <path id="Tracé_6447" data-name="Tracé 6447" d="M-580.317,1844.614a2.1,2.1,0,0,0,2.7-1.258v0l.719-1.976a2.1,2.1,0,0,0-1.366-2.642,2.1,2.1,0,0,0-2.583,1.206l-.719,1.974a2.1,2.1,0,0,0,1.25,2.7Z" fill="#474747"/>
    </g>
    <g id="Groupe_531" data-name="Groupe 531">
      <path id="Tracé_6448" data-name="Tracé 6448" d="M-584.451,1849.823l-.719,1.974a2.1,2.1,0,0,0,1.254,2.7,2.1,2.1,0,0,0,2.7-1.254l.719-1.977a2.1,2.1,0,0,0-1.239-2.7,2.1,2.1,0,0,0-2.7,1.24Z" fill="#474747"/>
    </g>
    <g id="Groupe_532" data-name="Groupe 532">
      <path id="Tracé_6449" data-name="Tracé 6449" d="M-561.084,1839.94a2.1,2.1,0,0,0-2.7-1.259,2.1,2.1,0,0,0-1.259,2.695l.72,1.976a2.1,2.1,0,0,0,2.7,1.258,2.1,2.1,0,0,0,1.258-2.7Z" fill="#474747"/>
    </g>
    <g id="Groupe_533" data-name="Groupe 533">
      <path id="Tracé_6450" data-name="Tracé 6450" d="M-561.435,1851.263l.719,1.977a2.1,2.1,0,0,0,2.7,1.254,2.1,2.1,0,0,0,1.254-2.7l-.719-1.974a2.1,2.1,0,0,0-2.7-1.24A2.1,2.1,0,0,0-561.435,1851.263Z" fill="#474747"/>
    </g>
    <g id="Groupe_534" data-name="Groupe 534">
      <path id="Tracé_6451" data-name="Tracé 6451" d="M-526.808,1846.265a2.1,2.1,0,0,0,2.1-2.1v-2.1a2.1,2.1,0,0,0-2.1-2.1,2.1,2.1,0,0,0-2.1,2.1v2.1A2.1,2.1,0,0,0-526.808,1846.265Z" fill="#474747"/>
    </g>
    <g id="Groupe_535" data-name="Groupe 535">
      <path id="Tracé_6452" data-name="Tracé 6452" d="M-528.911,1854.676a2.1,2.1,0,0,0,2.1,2.1,2.1,2.1,0,0,0,2.1-2.1v-2.1a2.1,2.1,0,0,0-2.1-2.1,2.1,2.1,0,0,0-2.1,2.1Z" fill="#474747"/>
    </g>
    <g id="Groupe_536" data-name="Groupe 536">
      <path id="Tracé_6453" data-name="Tracé 6453" d="M-536.157,1844.614a2.1,2.1,0,0,0,2.694-1.258v0l.72-1.976a2.1,2.1,0,0,0-1.366-2.642,2.1,2.1,0,0,0-2.584,1.206l-.719,1.974a2.1,2.1,0,0,0,1.25,2.7Z" fill="#474747"/>
    </g>
    <g id="Groupe_537" data-name="Groupe 537">
      <path id="Tracé_6454" data-name="Tracé 6454" d="M-540.292,1849.823l-.719,1.974a2.1,2.1,0,0,0,1.255,2.7,2.1,2.1,0,0,0,2.7-1.254h0l.72-1.977a2.1,2.1,0,0,0-1.241-2.7,2.1,2.1,0,0,0-2.7,1.241Z" fill="#474747"/>
    </g>
    <g id="Groupe_538" data-name="Groupe 538">
      <path id="Tracé_6455" data-name="Tracé 6455" d="M-516.925,1839.94a2.1,2.1,0,0,0-2.7-1.259,2.1,2.1,0,0,0-1.258,2.695l.719,1.976a2.1,2.1,0,0,0,2.7,1.258,2.1,2.1,0,0,0,1.257-2.7Z" fill="#474747"/>
    </g>
    <g id="Groupe_539" data-name="Groupe 539">
      <path id="Tracé_6456" data-name="Tracé 6456" d="M-517.276,1851.263l.719,1.977a2.1,2.1,0,0,0,2.7,1.254,2.1,2.1,0,0,0,1.254-2.7l-.719-1.974a2.1,2.1,0,0,0-2.7-1.24A2.1,2.1,0,0,0-517.276,1851.263Z" fill="#474747"/>
    </g>
  </g>
</svg>
