<?xml version="1.0" encoding="UTF-8"?>
<svg xmlns="http://www.w3.org/2000/svg" width="99.001" height="96.275" viewBox="0 0 99.001 96.275">
  <path id="Tracé_6429" data-name="Tracé 6429" d="M-937.529,1713.648h-13.626l-3.724-11.022a15.413,15.413,0,0,0,1.527-12.156,15.418,15.418,0,0,0-7.882-9.577l-33.524-17.132,17.322-12.382c2.248.754,3.6,1.22,4.432,1.508,1.374.474,1.4.483,1.724.483a1.767,1.767,0,0,0,1.786-1.521,1.762,1.762,0,0,0-1.184-2.009c-2.082-.839-3.819-1.367-5.351-1.832-3.3-1-5.113-1.555-6.142-3.91a5.257,5.257,0,0,1,1.33-6.084,5.181,5.181,0,0,1,6.164-.69l18.138,10.217-2.748,6.173-5.814-1.978a1.735,1.735,0,0,0-1.747.31,1.954,1.954,0,0,0-.619,1.82,1.736,1.736,0,0,0,1.2,1.31l5.941,2.02a3.546,3.546,0,0,0,2.377,2.995l2.682.913a3.549,3.549,0,0,0,2.967-.318l3.558,4.091a3.05,3.05,0,0,0,2.3,1.05,4.272,4.272,0,0,0,2.467-.985c.479-.305,1.076-.685,1.9-1.149a1.735,1.735,0,0,0,.885-1.538,1.951,1.951,0,0,0-1-1.643,1.738,1.738,0,0,0-1.773.075l-2.365,1.434-3.891-4.475,2.6-5.834,6.011.035.453,2.729a1.746,1.746,0,0,0,1.1,1.4,1.946,1.946,0,0,0,1.89-.32,1.74,1.74,0,0,0,.6-1.68l-.533-3.214a3.041,3.041,0,0,0-2.99-2.549l-5.41-.032a3.533,3.533,0,0,0-1.786-2.733l-2.469-1.391a3.519,3.519,0,0,0-3.958.335l-18.175-10.237a8.938,8.938,0,0,0-11.313,2.112l-29.766,12.866a13.586,13.586,0,0,0-9.917,3.837,13.565,13.565,0,0,0-4.187,9.844,13.61,13.61,0,0,0,5.238,10.757,13.6,13.6,0,0,0,11.492,2.588l29.336,27.149-3.492,10.336h-3.929a1.754,1.754,0,0,0-1.8,1.818,1.753,1.753,0,0,0,1.8,1.815h51.9a4.826,4.826,0,0,1,4.82,4.821v3.325a.215.215,0,0,1-.215.216h-68.944a.215.215,0,0,1-.215-.216V1722.1a4.826,4.826,0,0,1,4.82-4.821h1.965a1.754,1.754,0,0,0,1.806-1.818,1.753,1.753,0,0,0-1.806-1.815h-1.965a8.463,8.463,0,0,0-8.453,8.454v3.325a3.852,3.852,0,0,0,3.848,3.848h68.944a3.852,3.852,0,0,0,3.848-3.848V1722.1A8.463,8.463,0,0,0-937.529,1713.648Zm-66.808-50.83a10.065,10.065,0,0,1-10.054,10.053,10.065,10.065,0,0,1-10.053-10.053,10.065,10.065,0,0,1,10.053-10.054A10.065,10.065,0,0,1-1004.337,1662.818Zm22.792-12.968L-998.4,1661.9l-2.477-1.266a13.807,13.807,0,0,0-7.335-10.028l22.007-9.512A8.983,8.983,0,0,0-981.545,1649.85Zm23.013,51.747a11.927,11.927,0,0,1-8.508,5.034,11.939,11.939,0,0,1-9.392-3.106l-31.157-28.834a13.667,13.667,0,0,0,6.751-9.956l37.95,19.392a11.935,11.935,0,0,1,6.15,7.745A11.934,11.934,0,0,1-958.532,1701.6Zm-20.555,4.415a15.787,15.787,0,0,0,12.433,4.233,15.6,15.6,0,0,0,9.088-4.221l2.576,7.624h-26.678Zm26.64-58.73,2.292,1.291-4.035,9.061-2.488-.847Z" transform="translate(1028.077 -1633)" fill="#474747"/>
</svg>
