<?xml version="1.0" encoding="UTF-8"?>
<svg xmlns="http://www.w3.org/2000/svg" width="93.064" height="93.066" viewBox="0 0 93.064 93.066">
  <g id="Groupe_504" data-name="Groupe 504" transform="translate(684.428 -1649.594)">
    <path id="Tracé_6422" data-name="Tracé 6422" d="M-591.56,1658.87a2.025,2.025,0,0,0-.377-.558c-.027-.029-.06-.051-.09-.079a1.956,1.956,0,0,0-.239-.207l-12.138-8.092a2.021,2.021,0,0,0-2.245,0l-12.138,8.092a1.886,1.886,0,0,0-.239.207,1.121,1.121,0,0,0-.09.079,1.973,1.973,0,0,0-.377.558c-.021.044-.036.091-.053.137a2.021,2.021,0,0,0-.141.7v6.07h-8.3a10.135,10.135,0,0,0-9.912-8.093,10.134,10.134,0,0,0-9.911,8.093h-8.3v-6.07a2.021,2.021,0,0,0-.141-.7c-.019-.046-.033-.093-.053-.137a2.027,2.027,0,0,0-.377-.558c-.027-.029-.06-.051-.091-.079a1.8,1.8,0,0,0-.238-.207l-12.138-8.092a2.021,2.021,0,0,0-2.245,0l-12.139,8.092a1.872,1.872,0,0,0-.238.207c-.03.028-.063.048-.091.079a1.992,1.992,0,0,0-.376.558c-.021.044-.036.091-.053.137a1.979,1.979,0,0,0-.144.7V1675.9a2.028,2.028,0,0,0,.9,1.684l11.239,7.492v22.112l-11.239,7.492a2.032,2.032,0,0,0-.238.206c-.03.029-.063.049-.091.079a2,2,0,0,0-.376.558c-.021.045-.036.091-.053.138a2,2,0,0,0-.142.7v16.185a2.026,2.026,0,0,0,.9,1.683l12.139,8.093a2.031,2.031,0,0,0,1.123.34,2.032,2.032,0,0,0,1.124-.34l12.138-8.093a2.026,2.026,0,0,0,.9-1.683v-6.069h8.3a10.133,10.133,0,0,0,9.911,8.092,10.134,10.134,0,0,0,9.912-8.092h8.3v6.069a2.023,2.023,0,0,0,.9,1.683l12.138,8.093a2.031,2.031,0,0,0,1.123.34,2.032,2.032,0,0,0,1.124-.34l12.138-8.093a2.023,2.023,0,0,0,.9-1.683v-16.185a2.021,2.021,0,0,0-.141-.7c-.019-.047-.032-.093-.053-.138a2.042,2.042,0,0,0-.377-.558c-.027-.028-.06-.05-.09-.079a1.883,1.883,0,0,0-.239-.206l-11.238-7.49v-22.112l11.238-7.492a2.026,2.026,0,0,0,.9-1.684v-16.185a2.021,2.021,0,0,0-.141-.7C-591.524,1658.961-591.537,1658.916-591.56,1658.87Zm-13.966-4.819,8.491,5.66-8.491,5.661-8.49-5.661Zm-13.261,23.529,11.238,7.492v9.033H-627.78v-6.07a2.024,2.024,0,0,0-2.023-2.023h-6.069v-8.3a10.148,10.148,0,0,0,7.888-7.888h8.3v6.069A2.026,2.026,0,0,0-618.787,1677.58Zm-25.178,24.617v-12.139h12.139V1702.2Zm6.069-40.462a6.077,6.077,0,0,1,6.07,6.069,6.077,6.077,0,0,1-6.07,6.069,6.077,6.077,0,0,1-6.069-6.069A6.077,6.077,0,0,1-637.9,1661.735Zm-9.911,8.092a10.147,10.147,0,0,0,7.888,7.888v8.3h-6.069a2.025,2.025,0,0,0-2.023,2.023v6.07h-20.231v-9.033L-657,1677.58a2.028,2.028,0,0,0,.9-1.684v-6.069Zm-22.459-15.776,8.491,5.66-8.491,5.661-8.49-5.661Zm-10.115,9.44,8.992,6a2.032,2.032,0,0,0,1.123.34,2.032,2.032,0,0,0,1.124-.34l8.992-6v11.321l-10.116,6.743-10.115-6.743Zm10.115,47.208,8.491,5.66-8.491,5.66-8.49-5.66Zm10.116,20.762-10.116,6.743-10.115-6.743v-11.32l8.992,6a2.045,2.045,0,0,0,1.123.338,2.032,2.032,0,0,0,1.124-.34l8.992-6Zm4.046-15.1a2.021,2.021,0,0,0-.141-.7c-.019-.047-.033-.093-.053-.138a2.043,2.043,0,0,0-.377-.558c-.027-.028-.06-.05-.091-.079a1.806,1.806,0,0,0-.238-.206l-11.238-7.49v-9.033h20.231v6.069a2.023,2.023,0,0,0,2.023,2.023h6.069v8.3a10.147,10.147,0,0,0-7.888,7.888h-8.3Zm18.208,14.162a6.078,6.078,0,0,1-6.069-6.069,6.078,6.078,0,0,1,6.069-6.07,6.078,6.078,0,0,1,6.07,6.07A6.078,6.078,0,0,1-637.9,1730.521Zm9.912-8.093a10.148,10.148,0,0,0-7.888-7.888v-8.3h6.069a2.023,2.023,0,0,0,2.023-2.023v-6.069h20.231v9.033l-11.238,7.492a1.97,1.97,0,0,0-.239.206c-.03.029-.063.049-.09.079a1.987,1.987,0,0,0-.377.558c-.021.045-.036.091-.053.138a2,2,0,0,0-.141.7v6.069Zm22.458,15.776-10.115-6.743v-11.32l8.992,6a2.045,2.045,0,0,0,1.123.338,2.033,2.033,0,0,0,1.124-.34l8.992-6v11.32Zm0-16.185-8.49-5.66,8.49-5.66,8.491,5.66Zm0-40.462-10.115-6.743v-11.321l8.992,6a2.045,2.045,0,0,0,1.123.338,2.033,2.033,0,0,0,1.124-.34l8.992-6v11.321Z" fill="#474747"/>
  </g>
</svg>
