<?xml version="1.0" encoding="UTF-8"?>
<svg xmlns="http://www.w3.org/2000/svg" width="107.678" height="81.299" viewBox="0 0 107.678 81.299">
  <g id="Groupe_503" data-name="Groupe 503" transform="translate(527.75 -1656.115)">
    <g id="Groupe_490" data-name="Groupe 490">
      <g id="Groupe_489" data-name="Groupe 489">
        <path id="Tracé_6415" data-name="Tracé 6415" d="M-473.907,1683.649a13.138,13.138,0,0,0-13.123,13.124,13.138,13.138,0,0,0,13.123,13.123,13.138,13.138,0,0,0,13.124-13.123A13.138,13.138,0,0,0-473.907,1683.649Zm0,21.982a8.871,8.871,0,0,1-8.858-8.858,8.869,8.869,0,0,1,8.858-8.85,8.861,8.861,0,0,1,8.849,8.85A8.863,8.863,0,0,1-473.907,1705.631Z" fill="#474747"/>
      </g>
    </g>
    <g id="Groupe_492" data-name="Groupe 492">
      <g id="Groupe_491" data-name="Groupe 491">
        <path id="Tracé_6416" data-name="Tracé 6416" d="M-446.91,1696.773a26.916,26.916,0,0,1-9.827,20.835,2.18,2.18,0,0,1-3.006-.29,2.139,2.139,0,0,1,.291-3.006,22.667,22.667,0,0,0,8.267-17.539,22.7,22.7,0,0,0-8.267-17.54,2.137,2.137,0,0,1-.291-3.005,2.145,2.145,0,0,1,1.446-.758,1.7,1.7,0,0,1,.2-.018,2.122,2.122,0,0,1,1.358.494A26.9,26.9,0,0,1-446.91,1696.773Z" fill="#474747"/>
      </g>
    </g>
    <g id="Groupe_494" data-name="Groupe 494">
      <g id="Groupe_493" data-name="Groupe 493">
        <path id="Tracé_6417" data-name="Tracé 6417" d="M-487.453,1717.5a2.175,2.175,0,0,1-3,.379,26.835,26.835,0,0,1-10.453-21.339,26.936,26.936,0,0,1,9.818-20.835,2.131,2.131,0,0,1,1.358-.485,1.446,1.446,0,0,1,.2.009,2.107,2.107,0,0,1,1.446.766,2.138,2.138,0,0,1-.291,3.006,22.667,22.667,0,0,0-8.267,17.539,22.748,22.748,0,0,0,2.3,10.013,22.842,22.842,0,0,0,6.505,7.95,2.132,2.132,0,0,1,.81,1.428A2.1,2.1,0,0,1-487.453,1717.5Z" fill="#474747"/>
      </g>
    </g>
    <g id="Groupe_496" data-name="Groupe 496">
      <g id="Groupe_495" data-name="Groupe 495">
        <path id="Tracé_6418" data-name="Tracé 6418" d="M-433.248,1696.535a40.782,40.782,0,0,1-13.292,30.072,2.2,2.2,0,0,1-3.014-.141,2.132,2.132,0,0,1,.141-3.014,36.5,36.5,0,0,0,11.9-26.917,36.1,36.1,0,0,0-11.4-26.46,2.105,2.105,0,0,1-.67-1.489,2.085,2.085,0,0,1,.581-1.525,2.123,2.123,0,0,1,1.552-.67,2.111,2.111,0,0,1,1.463.582,40.432,40.432,0,0,1,9.316,13.194A40.407,40.407,0,0,1-433.248,1696.535Z" fill="#474747"/>
      </g>
    </g>
    <g id="Groupe_498" data-name="Groupe 498">
      <g id="Groupe_497" data-name="Groupe 497">
        <path id="Tracé_6419" data-name="Tracé 6419" d="M-497.519,1727.26a2.194,2.194,0,0,1-3.014.211,40.651,40.651,0,0,1-14.041-30.734,40.667,40.667,0,0,1,13.953-30.654,2.13,2.13,0,0,1,1.4-.529c.053,0,.1.009.15.009a2.146,2.146,0,0,1,1.463.723,2.1,2.1,0,0,1,.52,1.551,2.11,2.11,0,0,1-.723,1.463,36.384,36.384,0,0,0-12.489,27.437,36.368,36.368,0,0,0,3.288,15.116,36.346,36.346,0,0,0,9.272,12.392A2.145,2.145,0,0,1-497.519,1727.26Z" fill="#474747"/>
      </g>
    </g>
    <g id="Groupe_500" data-name="Groupe 500">
      <g id="Groupe_499" data-name="Groupe 499">
        <path id="Tracé_6420" data-name="Tracé 6420" d="M-420.072,1696.632a53.433,53.433,0,0,1-4.662,21.946,53.624,53.624,0,0,1-12.639,17.6,2.183,2.183,0,0,1-3.015-.123,2.132,2.132,0,0,1,.115-3.015,49.413,49.413,0,0,0,11.643-16.208,49.171,49.171,0,0,0,4.292-20.2,49.194,49.194,0,0,0-4.213-20.017,49.387,49.387,0,0,0-11.422-16.111,2.143,2.143,0,0,1-.67-1.49,2.13,2.13,0,0,1,.573-1.533,2.106,2.106,0,0,1,1.489-.67h.071a2.12,2.12,0,0,1,1.463.581,53.769,53.769,0,0,1,7.086,8.127,53.829,53.829,0,0,1,5.315,9.369A53.492,53.492,0,0,1-420.072,1696.632Z" fill="#474747"/>
      </g>
    </g>
    <g id="Groupe_502" data-name="Groupe 502">
      <g id="Groupe_501" data-name="Groupe 501">
        <path id="Tracé_6421" data-name="Tracé 6421" d="M-506.8,1736.726a2.192,2.192,0,0,1-3.014.167,53.926,53.926,0,0,1-17.936-40.12,53.922,53.922,0,0,1,17.936-40.112,2.14,2.14,0,0,1,1.419-.546,2.118,2.118,0,0,1,1.6.713,2.1,2.1,0,0,1,.538,1.543,2.114,2.114,0,0,1-.705,1.472,49.642,49.642,0,0,0-16.509,36.93,49.661,49.661,0,0,0,16.509,36.938A2.135,2.135,0,0,1-506.8,1736.726Z" fill="#474747"/>
      </g>
    </g>
  </g>
</svg>
