<?xml version="1.0" encoding="UTF-8"?>
<svg xmlns="http://www.w3.org/2000/svg" width="62.578" height="108.41" viewBox="0 0 62.578 108.41">
  <g id="Groupe_513" data-name="Groupe 513" transform="translate(1019.191 -1792.226)">
    <path id="Tracé_6430" data-name="Tracé 6430" d="M-987.9,1872.432a14.553,14.553,0,0,0,14.488-13.458c.006-.068.02-.134.02-.2,0-.023-.006-.045-.007-.068.016-.271.042-.539.042-.814a14.56,14.56,0,0,0-14.543-14.543,14.56,14.56,0,0,0-14.543,14.543A14.56,14.56,0,0,0-987.9,1872.432Zm2.2-24.43a10.15,10.15,0,0,1,7.836,8.565H-985.7Zm-4.407,0v12.972h11.856a10.152,10.152,0,0,1-9.652,7.051,10.147,10.147,0,0,1-10.136-10.136A10.148,10.148,0,0,1-990.106,1848Z" fill="#474747"/>
    <path id="Tracé_6431" data-name="Tracé 6431" d="M-969.328,1792.226h-37.149a12.729,12.729,0,0,0-12.714,12.715v82.981a12.728,12.728,0,0,0,12.714,12.714h37.149a12.729,12.729,0,0,0,12.715-12.714v-82.981A12.73,12.73,0,0,0-969.328,1792.226ZM-987.9,1896.67a4.407,4.407,0,0,1-4.407-4.407,4.407,4.407,0,0,1,4.407-4.407,4.407,4.407,0,0,1,4.407,4.407A4.407,4.407,0,0,1-987.9,1896.67Zm26.882-13.221h-53.764v-49.8h53.764Zm0-54.2h-12.339v-7.051h-4.407v7.051h-3.526v-15.865H-985.7v15.865h-2.644v-20.271h-4.407v20.271h-4.407v-13.22h-4.407v13.22h-13.22v-24.3a8.317,8.317,0,0,1,8.307-8.308h37.149a8.317,8.317,0,0,1,8.308,8.308Z" fill="#474747"/>
  </g>
</svg>
