<svg xmlns="http://www.w3.org/2000/svg" width="70" height="70" viewBox="0 0 70 70">
  <g  transform="translate(-1168 -2155)">
    <circle  cx="35" cy="35" r="35" transform="translate(1168 2155)" fill="#fff"/>
    <g transform="translate(-36 540.494)">
      <path  d="M239.709,239.014h.029a18.871,18.871,0,0,1,18.785,17.412q.056.738.056,1.486v.014a1.429,1.429,0,0,1-1.435,1.415H243.917l4.3,7.448h-3.366l-4.3-7.448-.84-1.456.843-1.459,2.534-4.237h3.366l-2.534,4.237h10.023a1.44,1.44,0,0,0,1.4-1.735,15.965,15.965,0,0,0-15.612-12.762h-.025c-3.823,0-9.856,1.337-12.737,3.789C226.972,245.718,232.07,239.014,239.709,239.014Z" transform="translate(999.159 1391.986)" fill="#009ec0"/>
      <path  d="M226.794,297.759h-.029a18.871,18.871,0,0,1-18.785-17.412q-.056-.738-.056-1.486v-.014a1.429,1.429,0,0,1,1.435-1.415h13.228l-4.3-7.448h3.366l4.3,7.448.841,1.455-.843,1.46-2.373,4.156h-3.366l2.373-4.156H212.561a1.44,1.44,0,0,0-1.4,1.735,15.966,15.966,0,0,0,15.612,12.762h.025c3.823,0,9.857-1.337,12.737-3.789C239.531,291.055,234.433,297.759,226.794,297.759Z" transform="translate(1012.076 1370.985)" fill="#ff5d06"/>
    </g>
  </g>
</svg>
