<svg xmlns="http://www.w3.org/2000/svg" width="5410.791" height="1271.578" viewBox="0 0 5410.791 1271.578"><g transform="translate(-47.531 -245.246)" opacity="0.996"><path d="M400.061,255.208H641.392l-.453.757-180.38,301.57H3012.114V766.522H460.418L767.38,1297.968H526.036l-.144-.25L158.806,662.178l.145-.25,60.132-104.15Zm239.568,1h-239L219.94,558.292,159.961,662.178l59.834,103.594,306.818,531.2H765.648L458.686,765.522H3011.114V558.535H458.8l.453-.757Z" transform="translate(2446.208 218.855)" fill="#dcdcdc"/><path d="M2376.407,1282.262H2135.089l.427-.748,168.917-295.836H47.531V776.692H2304.555L1997.592,245.246h241.344l.144.25,306.963,531.447,60.126,104.092-.144.25L2545.9,985.428Zm-239.6-1h239.015l169.2-296.331,59.985-103.9-59.837-103.591-306.818-531.2H1999.324l306.963,531.447H48.531V984.678H2306.156l-.427.748Z" transform="translate(0 0)" fill="#dcdcdc"/></g></svg>